<svg version="1.1" xmlns="http://www.w3.org/2000/svg" viewBox="0 0 1217.9888625311273 1801.0900286743122" width="1217.9888625311273" height="1801.0900286743122">
  <!-- svg-source:excalidraw -->
  
  <defs>
    <style>
      @font-face {
        font-family: "Virgil";
        src: url("https://excalidraw.com/Virgil.woff2");
      }
      @font-face {
        font-family: "Cascadia";
        src: url("https://excalidraw.com/Cascadia.woff2");
      }
    </style>
  </defs>
  <rect x="0" y="0" width="1217.9888625311273" height="1801.0900286743122" fill="#ffffff"></rect><g stroke-linecap="round" transform="translate(638.2450586031773 10) rotate(0 164.60973249764106 77.32674933860963)"><path d="M-1.28 0.78 C116.7 2.31, 231.66 0.57, 329.03 0.94 M0.32 -0.09 C129.82 1.16, 261.16 1.77, 328.64 0.14 M330.82 -1 C327.38 37.36, 327.96 77.77, 329.6 153.33 M328.6 -0.21 C328.47 40.96, 328.29 81.45, 328.85 154.77 M329.79 154.53 C215.64 151.74, 102.17 153.22, -0.2 153.33 M329.36 155.06 C214.14 152.98, 97.68 152, 0.06 154.49 M-1.46 154 C-1 100.75, -1.4 46.96, -1.03 -0.98 M-0.99 154.04 C-1.24 112.38, -1.92 70.28, -0.28 0.01" stroke="#000000" stroke-width="1" fill="none"></path></g><g transform="translate(699.3099593684308 22.611229505867982) rotate(0 102.88108281102564 20.576216562205147)"><text x="0" y="29.152433124410287" font-family="Virgil, Segoe UI Emoji" font-size="32.92194649952819px" fill="#000000" text-anchor="start" style="white-space: pre;" direction="ltr">Initialization</text></g><g transform="translate(653.1701155182905 67.4049878822463) rotate(0 91 51)"><text x="0" y="12" font-family="Virgil, Segoe UI Emoji" font-size="13.274978427229128px" fill="#000000" text-anchor="start" style="white-space: pre;" direction="ltr">given:</text><text x="0" y="29" font-family="Virgil, Segoe UI Emoji" font-size="13.274978427229128px" fill="#000000" text-anchor="start" style="white-space: pre;" direction="ltr">- filepath to PlasmaDB</text><text x="0" y="46" font-family="Virgil, Segoe UI Emoji" font-size="13.274978427229128px" fill="#000000" text-anchor="start" style="white-space: pre;" direction="ltr">- (optional) host and port </text><text x="0" y="63" font-family="Virgil, Segoe UI Emoji" font-size="13.274978427229128px" fill="#000000" text-anchor="start" style="white-space: pre;" direction="ltr">for main InfinimumDB-Server</text><text x="0" y="80" font-family="Virgil, Segoe UI Emoji" font-size="13.274978427229128px" fill="#000000" text-anchor="start" style="white-space: pre;" direction="ltr">- listen address and port</text><text x="0" y="97" font-family="Virgil, Segoe UI Emoji" font-size="13.274978427229128px" fill="#000000" text-anchor="start" style="white-space: pre;" direction="ltr"></text></g><g stroke-linecap="round" transform="translate(712.5849377956606 251.60460737557003) rotate(0 99.5623382042184 72.01675796771795)"><path d="M98.8 0.82 C124.24 17.46, 149.63 37.58, 198.89 71.9 M99.62 0.15 C137.13 26.7, 172.43 52.91, 198.44 72.78 M199.17 73.88 C177.12 90.4, 152.4 109.24, 99.48 143.52 M198.17 73.89 C161.63 102.63, 122.58 130.3, 99.42 143.7 M100.61 142.67 C77.26 129, 55.92 112.46, 0.08 71.49 M99.51 144.19 C61.96 118.83, 25.89 92.17, 0.68 73.76 M0.24 72.06 C35.72 49.05, 67.8 24.7, 98.32 -1.87 M0.95 73.11 C28.69 52.95, 56.19 32.53, 100.9 0.22" stroke="#000000" stroke-width="1" fill="none"></path></g><g transform="translate(735.8161500433112 313.9970059835466) rotate(0 80.64549394541689 8.296861517018186)"><text x="0" y="11.593723034036401" font-family="Virgil, Segoe UI Emoji" font-size="13.274978427229122px" fill="#000000" text-anchor="start" style="white-space: pre;" direction="ltr">Is PlasmaDB reachable?</text></g><g stroke-linecap="round"><g transform="translate(811.3453506054188 162.2051353785409) rotate(0 0.09834505469075339 44.0907744036312)"><path d="M1.06 0.8 C0.74 15.38, -0.67 72.37, -1 86.94 M0.16 0.17 C0.12 14.93, 0.96 73.7, 1.19 88.01" stroke="#000000" stroke-width="1" fill="none"></path></g><g transform="translate(811.3453506054188 162.2051353785409) rotate(0 0.09834505469075339 44.0907744036312)"><path d="M-8.16 58.32 C-7.04 69.06, -0.89 81.41, -0.03 88.51 M-10.04 59.7 C-6.38 68.72, -2.93 79.34, 2.19 88.95" stroke="#000000" stroke-width="1" fill="none"></path></g><g transform="translate(811.3453506054188 162.2051353785409) rotate(0 0.09834505469075339 44.0907744036312)"><path d="M12.36 58.01 C5.7 69.05, 4.07 81.52, -0.03 88.51 M10.48 59.39 C7.22 68.36, 3.75 79.08, 2.19 88.95" stroke="#000000" stroke-width="1" fill="none"></path></g></g><g transform="translate(823.3194818767907 184.16244423124573) rotate(0 106.5 10)"><text x="0" y="14" font-family="Virgil, Segoe UI Emoji" font-size="15.688610868543481px" fill="#000000" text-anchor="start" style="white-space: pre;" direction="ltr">Check with ArrowPlasmaJNI</text></g><g stroke-linecap="round" transform="translate(428.5003994529578 253.9738887753013) rotate(0 100.88983604694135 67.03864105750705)"><path d="M133.95 2.84 C146.69 4.38, 158.78 10.77, 168.65 17.06 C178.52 23.36, 187.75 32.26, 193.17 40.6 C198.59 48.93, 201.26 57.86, 201.17 67.09 C201.09 76.32, 198.2 87.56, 192.67 95.96 C187.14 104.35, 178.22 111.5, 167.99 117.46 C157.76 123.42, 144.37 129.02, 131.29 131.74 C118.21 134.45, 103.21 135.05, 89.51 133.75 C75.81 132.44, 60.94 128.46, 49.09 123.92 C37.23 119.37, 26.18 113.89, 18.38 106.48 C10.59 99.06, 4.86 88.47, 2.32 79.42 C-0.22 70.38, 0.24 60.91, 3.15 52.21 C6.05 43.52, 11.71 34.4, 19.74 27.25 C27.78 20.1, 39.34 13.68, 51.36 9.3 C63.39 4.93, 77.2 1.49, 91.91 0.99 C106.63 0.48, 130.66 5.04, 139.67 6.26 C148.68 7.49, 146.42 7.61, 145.98 8.34 M54.3 8.2 C65.37 2.97, 80.77 -0.42, 94.39 -1.14 C108.01 -1.85, 123.37 0.49, 136.04 3.89 C148.7 7.29, 160.63 12.76, 170.38 19.26 C180.13 25.77, 189.42 34.66, 194.52 42.93 C199.62 51.2, 201.6 59.96, 200.96 68.87 C200.33 77.79, 196.73 88.12, 190.73 96.41 C184.72 104.71, 174.9 112.74, 164.91 118.66 C154.92 124.58, 143.88 129.54, 130.8 131.95 C117.73 134.35, 100.43 134.18, 86.47 133.11 C72.51 132.03, 58.65 130.4, 47.05 125.5 C35.44 120.61, 24.59 111.32, 16.84 103.73 C9.08 96.13, 2.89 88.9, 0.53 79.92 C-1.83 70.93, -0.83 59.04, 2.66 49.83 C6.15 40.63, 13.2 31.51, 21.5 24.7 C29.79 17.9, 47.25 11.72, 52.46 9.01 C57.66 6.29, 51.64 7.46, 52.74 8.41" stroke="#000000" stroke-width="1" fill="none"></path></g><g transform="translate(452.93842792126554 291.2645099936099) rotate(0 71.5 25.5)"><text x="0" y="12" font-family="Virgil, Segoe UI Emoji" font-size="13.274978427229115px" fill="#000000" text-anchor="start" style="white-space: pre;" direction="ltr">Error:</text><text x="0" y="29" font-family="Virgil, Segoe UI Emoji" font-size="13.274978427229115px" fill="#000000" text-anchor="start" style="white-space: pre;" direction="ltr">"PlasmaDB</text><text x="0" y="46" font-family="Virgil, Segoe UI Emoji" font-size="13.274978427229115px" fill="#000000" text-anchor="start" style="white-space: pre;" direction="ltr">could not be reached"</text></g><g stroke-linecap="round"><g transform="translate(714.5377852463316 323.5559347858141) rotate(0 -40.669689842195936 0.4805322260929472)"><path d="M0.63 -0.56 C-13.07 -0.83, -67.62 -0.86, -81.39 -0.68 M-0.49 1.75 C-14.37 1.56, -68.27 1.05, -81.97 0.51" stroke="#000000" stroke-width="1" fill="none"></path></g><g transform="translate(714.5377852463316 323.5559347858141) rotate(0 -40.669689842195936 0.4805322260929472)"><path d="M-54.5 -7.96 C-65.14 -5.28, -73.62 -1.34, -80.7 0.96 M-54.03 -8.61 C-62.99 -6.33, -72.65 -3.24, -82.83 0.36" stroke="#000000" stroke-width="1" fill="none"></path></g><g transform="translate(714.5377852463316 323.5559347858141) rotate(0 -40.669689842195936 0.4805322260929472)"><path d="M-54.96 12.56 C-65.58 7.64, -73.89 3.98, -80.7 0.96 M-54.49 11.91 C-63.43 7.41, -72.94 3.73, -82.83 0.36" stroke="#000000" stroke-width="1" fill="none"></path></g></g><g stroke-linecap="round"><g transform="translate(424.1224797375578 319.2444089473068) rotate(0 -30.097044120526974 -0.7589288073600073)"><path d="M0.93 -0.43 C-9.1 -0.36, -49.96 0.42, -60.06 0.37 M-0.04 -1.7 C-10.27 -2, -51.08 -1.91, -61.13 -1.6" stroke="#000000" stroke-width="1" fill="none"></path></g><g transform="translate(424.1224797375578 319.2444089473068) rotate(0 -30.097044120526974 -0.7589288073600073)"><path d="M-33.88 -12.6 C-41.45 -8.37, -52.1 -4.74, -59.71 -0.48 M-34.06 -12.77 C-43.56 -7.75, -52.65 -4.94, -61.54 -2.07" stroke="#000000" stroke-width="1" fill="none"></path></g><g transform="translate(424.1224797375578 319.2444089473068) rotate(0 -30.097044120526974 -0.7589288073600073)"><path d="M-33.6 7.85 C-41.25 5.67, -51.99 2.89, -59.71 -0.48 M-33.79 7.69 C-43.23 5.72, -52.42 1.52, -61.54 -2.07" stroke="#000000" stroke-width="1" fill="none"></path></g></g><g stroke-linecap="round" transform="translate(320.9730741924014 294.3862423978675) rotate(0 18.91684425880149 19.248718719482213)"><path d="M20.76 -0.22 C24.54 -0.04, 28.83 2.84, 31.8 5.78 C34.77 8.72, 38.13 13.24, 38.57 17.4 C39.02 21.56, 36.85 27.28, 34.47 30.73 C32.08 34.18, 28.07 37.12, 24.29 38.08 C20.52 39.04, 15.59 38.31, 11.82 36.49 C8.05 34.67, 3.51 30.75, 1.68 27.15 C-0.15 23.55, -0.35 18.76, 0.83 14.88 C2 11, 4.39 6.03, 8.75 3.85 C13.1 1.68, 23.42 1.83, 26.94 1.82 C30.45 1.8, 29.94 3.55, 29.84 3.74 M27.96 1.73 C31.23 3.19, 33.24 6.39, 34.67 10 C36.09 13.61, 37.39 19.35, 36.52 23.38 C35.66 27.4, 32.48 31.89, 29.46 34.15 C26.44 36.42, 22.28 37.41, 18.4 36.98 C14.51 36.54, 9.33 34.25, 6.17 31.54 C3.02 28.83, 0.02 24.86, -0.54 20.7 C-1.09 16.55, 0.38 9.98, 2.84 6.59 C5.3 3.2, 9.98 1.16, 14.22 0.36 C18.46 -0.44, 26.28 1.69, 28.26 1.79 C30.24 1.9, 26.65 0.7, 26.12 0.98" stroke="#000000" stroke-width="1" fill="none"></path></g><g stroke-linecap="round" transform="translate(330.9293080128232 303.01497837556644) rotate(0 8.96061043837966 9.624359359741106)"><path d="M13.02 1.35 C14.76 2.14, 16.01 4.01, 16.64 5.59 C17.28 7.17, 17.11 8.97, 16.83 10.83 C16.54 12.69, 16.14 15.19, 14.93 16.75 C13.71 18.31, 11.43 20.2, 9.55 20.19 C7.66 20.17, 5.06 18.18, 3.61 16.67 C2.17 15.16, 1.42 12.95, 0.89 11.11 C0.36 9.27, -0.37 7.39, 0.44 5.62 C1.24 3.84, 3.35 1.05, 5.71 0.44 C8.07 -0.16, 13.06 1.55, 14.58 2 C16.1 2.46, 15.11 3.06, 14.81 3.17 M4.86 0.4 C6.17 -0.17, 9.09 0.19, 10.93 0.85 C12.77 1.51, 14.63 2.61, 15.91 4.36 C17.19 6.11, 18.98 9.09, 18.6 11.34 C18.22 13.58, 15.06 16.45, 13.61 17.84 C12.17 19.23, 11.6 19.94, 9.94 19.67 C8.28 19.41, 5.13 17.74, 3.65 16.24 C2.16 14.74, 1.19 12.38, 1.02 10.65 C0.85 8.92, 1.79 7.63, 2.63 5.86 C3.48 4.09, 5.44 1.03, 6.11 0.04 C6.77 -0.96, 6.61 -0.14, 6.62 -0.09" stroke="none" stroke-width="0" fill="#000"></path><path d="M6.74 -0.35 C8.51 -1.17, 10.9 -1.07, 12.49 -0.21 C14.09 0.64, 15.49 3.01, 16.3 4.76 C17.1 6.51, 17.58 8.27, 17.33 10.28 C17.07 12.28, 16.01 15.32, 14.76 16.8 C13.5 18.28, 11.8 19.28, 9.79 19.18 C7.78 19.08, 4.43 17.51, 2.69 16.19 C0.95 14.88, -0.49 13.26, -0.66 11.27 C-0.84 9.28, 0.33 6.1, 1.65 4.27 C2.98 2.44, 6.28 0.77, 7.31 0.27 C8.33 -0.22, 8.08 1.22, 7.81 1.33 M12.69 -0.32 C13.99 0.26, 15.61 2.41, 16.35 4.57 C17.09 6.72, 17.72 10.62, 17.14 12.58 C16.57 14.54, 14.45 15.21, 12.91 16.32 C11.38 17.43, 9.5 19.38, 7.94 19.23 C6.37 19.09, 4.83 16.87, 3.51 15.42 C2.19 13.98, 0.26 12.65, 0.02 10.55 C-0.22 8.44, 1.01 4.69, 2.09 2.79 C3.16 0.9, 4.85 -0.66, 6.47 -0.82 C8.1 -0.99, 10.74 1.32, 11.83 1.78 C12.92 2.24, 12.81 1.92, 13.01 1.93" stroke="#000000" stroke-width="1" fill="none"></path></g><g transform="translate(667.8958626912689 294.92260516260365) rotate(0 11.313902068661207 11.313902068661235)"><text x="0" y="15.627804137322443" font-family="Virgil, Segoe UI Emoji" font-size="18.102243309857947px" fill="#000000" text-anchor="start" style="white-space: pre;" direction="ltr">No</text></g><g stroke-linecap="round"><g transform="translate(810.8396563758953 397.2191321510217) rotate(0 0.08234775186514298 40.37496962015638)"><path d="M-0.28 1.12 C-0.36 14.14, -0.48 65.84, -0.43 79.14 M1.77 0.66 C1.5 13.71, -1.18 67.04, -1.6 80.09" stroke="#000000" stroke-width="1" fill="none"></path></g><g transform="translate(810.8396563758953 397.2191321510217) rotate(0 0.08234775186514298 40.37496962015638)"><path d="M-8.8 50.77 C-9.56 60.15, -3.84 69.35, -2.03 81.55 M-10.96 52.24 C-6.93 61.9, -4.59 71.75, -1.6 80.89" stroke="#000000" stroke-width="1" fill="none"></path></g><g transform="translate(810.8396563758953 397.2191321510217) rotate(0 0.08234775186514298 40.37496962015638)"><path d="M11.7 51.64 C4.75 60.71, 4.28 69.64, -2.03 81.55 M9.54 53.11 C6.53 62.42, 1.84 71.96, -1.6 80.89" stroke="#000000" stroke-width="1" fill="none"></path></g></g><g transform="translate(821.1615227147317 420.43149211095164) rotate(0 13.739602672182116 10.40878990316827)"><text x="0" y="14.817579806336582" font-family="Virgil, Segoe UI Emoji" font-size="16.65406384506926px" fill="#000000" text-anchor="start" style="white-space: pre;" direction="ltr">Yes</text></g><g stroke-linecap="round" transform="translate(709.5310223039419 479.2939532735058) rotate(0 99.5623382042184 72.01675796771798)"><path d="M98.28 1.6 C122.13 19.01, 148.4 34.19, 197.93 71.98 M100.28 0.19 C132.54 23.71, 164.82 47.92, 198.14 72.87 M200.63 73.3 C171.68 92.21, 148.8 111.33, 100.09 143.09 M199.99 72.2 C165.55 97.4, 133.58 119.67, 100.52 143.86 M99.71 143.12 C65 117.92, 28.07 90.04, 0.33 73.35 M99.47 143.26 C64.33 119.25, 28.94 93.59, 0.72 73.64 M-0.25 71.78 C26.56 50.97, 53.55 32.57, 101.09 -1.31 M-0.07 72.16 C22.58 56.38, 48.04 38.03, 99.72 0.08" stroke="#000000" stroke-width="1" fill="none"></path></g><g transform="translate(732.7622345515924 535.0488626678693) rotate(0 76.33112595656746 16.59372303403643)"><text x="76.33112595656743" y="11.593723034036401" font-family="Virgil, Segoe UI Emoji" font-size="13.274978427229124px" fill="#000000" text-anchor="middle" style="white-space: pre;" direction="ltr">Is this server the main</text><text x="76.33112595656743" y="28.187446068072802" font-family="Virgil, Segoe UI Emoji" font-size="13.274978427229124px" fill="#000000" text-anchor="middle" style="white-space: pre;" direction="ltr">server?</text></g><g stroke-linecap="round"><g transform="translate(906.1727134110538 551.0741066239732) rotate(0 85.83567797168126 -0.46875979006290436)"><path d="M0.92 0.15 C29.68 0.14, 143.49 -0.98, 171.72 -1.09 M-0.05 -0.81 C28.66 -0.63, 142.18 -0.36, 170.98 -0.13" stroke="#000000" stroke-width="1" fill="none"></path></g></g><g stroke-linecap="round"><g transform="translate(1077.6024794883826 552.0870392808765) rotate(0 0.2597287838207194 225.62576992172598)"><path d="M-0.67 -0.58 C-0.62 74.9, 0.31 376.51, 0.24 451.83 M1.19 1.73 C1.1 76.96, -0.59 374.92, -0.58 450.11" stroke="#000000" stroke-width="1" fill="none"></path></g><g transform="translate(1077.6024794883826 552.0870392808765) rotate(0 0.2597287838207194 225.62576992172598)"><path d="M-11.71 422.29 C-6.71 428.54, -4.48 439.41, 0.73 449.54 M-9.86 421.13 C-6.76 432.5, -4.26 442.12, 0.34 450.93" stroke="#000000" stroke-width="1" fill="none"></path></g><g transform="translate(1077.6024794883826 552.0870392808765) rotate(0 0.2597287838207194 225.62576992172598)"><path d="M8.81 422.35 C7.73 428.47, 3.88 439.33, 0.73 449.54 M10.66 421.19 C6.54 432.65, 1.82 442.25, 0.34 450.93" stroke="#000000" stroke-width="1" fill="none"></path></g></g><g transform="translate(958.4038240370171 528.2116741034552) rotate(0 10.951857202463998 8.296861517018215)"><text x="10.95185720246402" y="11.593723034036401" font-family="Virgil, Segoe UI Emoji" font-size="13.274978427229117px" fill="#000000" text-anchor="middle" style="white-space: pre;" direction="ltr">Yes</text></g><g stroke-linecap="round"><g transform="translate(709.1164001518862 549.5071064607246) rotate(0 -90.91349984747313 0.7438586310250344)"><path d="M-0.33 0.72 C-30.73 0.73, -152.26 0.22, -182.64 -0.02 M1.7 0.06 C-28.82 0.28, -152.69 1.48, -183.53 1.51" stroke="#000000" stroke-width="1" fill="none"></path></g></g><g stroke-linecap="round"><g transform="translate(525.7603470220118 548.4720848673608) rotate(0 0.09119092867243239 40.99685866007758)"><path d="M-0.8 -0.53 C-0.79 13.31, 0.34 68.67, 0.3 82.52 M0.98 1.81 C0.83 15.39, -0.55 67.78, -0.49 80.96" stroke="#000000" stroke-width="1" fill="none"></path></g><g transform="translate(525.7603470220118 548.4720848673608) rotate(0 0.09119092867243239 40.99685866007758)"><path d="M-11.27 53.14 C-5.56 60.12, -2.22 70.02, -0.88 81.94 M-10.91 52.86 C-7.8 61.24, -5.62 68.12, 0 80.86" stroke="#000000" stroke-width="1" fill="none"></path></g><g transform="translate(525.7603470220118 548.4720848673608) rotate(0 0.09119092867243239 40.99685866007758)"><path d="M9.25 53.4 C8.36 60.17, 5.11 69.98, -0.88 81.94 M9.61 53.12 C7.13 61.25, 3.71 68.06, 0 80.86" stroke="#000000" stroke-width="1" fill="none"></path></g></g><g transform="translate(606.0297700461891 530.8551763010851) rotate(0 8.296861517018215 8.296861517018215)"><text x="8.2968615170182" y="11.593723034036401" font-family="Virgil, Segoe UI Emoji" font-size="13.274978427229126px" fill="#000000" text-anchor="middle" style="white-space: pre;" direction="ltr">No</text></g><g stroke-linecap="round" transform="translate(450.0655348626452 630.3571736942704) rotate(0 76.02942190140308 51.28968937793064)"><path d="M39.35 6.73 C48.75 2.41, 63.23 -0.55, 74.99 -0.59 C86.75 -0.64, 99.31 2.83, 109.91 6.47 C120.51 10.12, 131.67 14.92, 138.59 21.28 C145.51 27.63, 149.8 36.6, 151.42 44.59 C153.04 52.58, 152.27 61.83, 148.32 69.22 C144.38 76.61, 136.69 83.55, 127.76 88.93 C118.82 94.3, 106.36 99.39, 94.72 101.48 C83.08 103.58, 69.32 103.28, 57.94 101.48 C46.56 99.68, 35.11 95.96, 26.43 90.68 C17.75 85.39, 10.09 77.29, 5.86 69.78 C1.63 62.27, -0.16 53.61, 1.06 45.61 C2.29 37.6, 5.4 28.93, 13.23 21.76 C21.05 14.58, 40.62 5.69, 48.01 2.56 C55.39 -0.56, 57.08 2.18, 57.55 3 M107.13 4.45 C117.55 7.25, 128.84 14.95, 135.92 21.39 C143 27.83, 147.72 35.45, 149.61 43.07 C151.51 50.68, 150.85 59.52, 147.3 67.08 C143.76 74.64, 136.58 82.75, 128.35 88.43 C120.11 94.1, 108.87 98.74, 97.89 101.13 C86.91 103.51, 74.12 104.2, 62.45 102.73 C50.79 101.26, 37.29 97.62, 27.93 92.32 C18.57 87.02, 10.69 78.43, 6.28 70.95 C1.86 63.48, 0.69 55.49, 1.44 47.49 C2.2 39.48, 4.96 29.58, 10.81 22.93 C16.65 16.27, 26.03 11.53, 36.51 7.54 C46.98 3.55, 61.68 -0.73, 73.65 -1.01 C85.61 -1.29, 102.58 4.66, 108.3 5.84 C114.03 7.01, 108.71 5.22, 108.01 6.03" stroke="#000000" stroke-width="1" fill="none"></path></g><g transform="translate(470.0081729090052 659.381103801076) rotate(0 54.487752362672296 21.11928386150089)"><text x="54.4877523626723" y="15.119283861500893" font-family="Virgil, Segoe UI Emoji" font-size="16.895427089200712px" fill="#000000" text-anchor="middle" style="white-space: pre;" direction="ltr">Try to reach</text><text x="54.4877523626723" y="36.238567723001786" font-family="Virgil, Segoe UI Emoji" font-size="16.895427089200712px" fill="#000000" text-anchor="middle" style="white-space: pre;" direction="ltr"> main server</text></g><g stroke-linecap="round" transform="translate(424.7223942288442 784.0150489894461) rotate(0 99.5623382042184 72.01675796771792)"><path d="M98.49 0.93 C133.84 24.35, 169.48 47.99, 198.07 73.25 M100.7 -0.75 C126.8 18.39, 153.12 38.97, 198.15 73.43 M198.18 72.89 C169.29 94.91, 137.53 116.34, 99.49 144.67 M199.58 72.1 C169.8 93.34, 139.74 114.97, 99.3 143.35 M98.82 144.55 C67.58 123.55, 38.92 100, 1.06 74.4 M99.31 144.98 C78.02 129.2, 55.82 112.6, -0.97 72.51 M-0.83 71.39 C32.3 46.8, 67.49 20.92, 100.55 0.87 M-0.25 73.24 C38.37 44.98, 74.47 17.68, 99.32 0.71" stroke="#000000" stroke-width="1" fill="none"></path></g><g transform="translate(463.21983166780865 839.7699583838116) rotate(0 61.06490076525395 16.59372303403643)"><text x="61.06490076525395" y="11.593723034036401" font-family="Virgil, Segoe UI Emoji" font-size="13.274978427229119px" fill="#000000" text-anchor="middle" style="white-space: pre;" direction="ltr">Is the main server</text><text x="61.06490076525395" y="28.187446068072802" font-family="Virgil, Segoe UI Emoji" font-size="13.274978427229119px" fill="#000000" text-anchor="middle" style="white-space: pre;" direction="ltr">reachable?</text></g><g stroke-linecap="round"><g transform="translate(527.2824519251367 733.9424959388368) rotate(0 0.3239203401266195 25.23066513001919)"><path d="M0.95 0.73 C1.04 9.13, 0.76 42.29, 0.47 50.39 M-0.01 0.07 C-0.03 8.09, -0.52 40.07, -0.23 48.43" stroke="#000000" stroke-width="1" fill="none"></path></g><g transform="translate(527.2824519251367 733.9424959388368) rotate(0 0.3239203401266195 25.23066513001919)"><path d="M-7.73 25.75 C-5.85 30.55, -5.04 40.44, -0.87 49.94 M-9.63 24.61 C-6.18 31.69, -3.46 39.68, -0.82 49.42" stroke="#000000" stroke-width="1" fill="none"></path></g><g transform="translate(527.2824519251367 733.9424959388368) rotate(0 0.3239203401266195 25.23066513001919)"><path d="M9.4 25.63 C6.21 30.61, 1.94 40.53, -0.87 49.94 M7.5 24.5 C5.83 31.6, 3.45 39.62, -0.82 49.42" stroke="#000000" stroke-width="1" fill="none"></path></g></g><g transform="translate(540.7063027499635 741.896871688393) rotate(0 66.3748921361456 8.296861517018215)"><text x="66.3748921361456" y="11.593723034036401" font-family="Virgil, Segoe UI Emoji" font-size="13.274978427229126px" fill="#000000" text-anchor="middle" style="white-space: pre;" direction="ltr">Check with Infinileap</text></g><g stroke-linecap="round"><g transform="translate(422.79125167819774 855.0918589928472) rotate(0 -50.55444284516807 0.08508185912501176)"><path d="M-0.16 0.85 C-16.94 1.06, -83.52 0.93, -100.45 0.87 M-1.71 0.25 C-18.58 0.16, -84.11 -0.48, -100.95 -0.79" stroke="#000000" stroke-width="1" fill="none"></path></g><g transform="translate(422.79125167819774 855.0918589928472) rotate(0 -50.55444284516807 0.08508185912501176)"><path d="M-71.21 -9.24 C-80.19 -8.3, -89.85 -2.71, -102.62 -1.4 M-73.37 -10.77 C-80.11 -7.93, -86.35 -5.72, -99.97 -0.26" stroke="#000000" stroke-width="1" fill="none"></path></g><g transform="translate(422.79125167819774 855.0918589928472) rotate(0 -50.55444284516807 0.08508185912501176)"><path d="M-71.48 11.27 C-80.32 5.7, -89.89 4.78, -102.62 -1.4 M-73.65 9.75 C-80.37 7.38, -86.54 4.39, -99.97 -0.26" stroke="#000000" stroke-width="1" fill="none"></path></g></g><g transform="translate(363.92902711323796 831.3524152447269) rotate(0 11.615606123825472 11.6156061238255)"><text x="11.615606123825478" y="16.231212247650955" font-family="Virgil, Segoe UI Emoji" font-size="18.584969798120763px" fill="#000000" text-anchor="middle" style="white-space: pre;" direction="ltr">No</text></g><g stroke-linecap="round" transform="translate(117.52732526055587 783.5624929067058) rotate(0 100.88983604694135 67.038641057507)"><path d="M107.91 -0.06 C120.84 -0.66, 135.64 2.74, 147.58 6.84 C159.52 10.94, 171.17 17.3, 179.53 24.53 C187.9 31.76, 194.44 41.16, 197.76 50.24 C201.07 59.32, 201.44 70.01, 199.41 79.01 C197.39 88, 192.9 96.69, 185.63 104.21 C178.36 111.73, 167.51 119.42, 155.81 124.12 C144.12 128.83, 129.18 131.02, 115.45 132.44 C101.72 133.85, 86.48 135.04, 73.44 132.62 C60.39 130.2, 47.49 123.84, 37.18 117.93 C26.87 112.01, 17.75 105.14, 11.58 97.13 C5.41 89.12, 1 79.1, 0.17 69.86 C-0.67 60.62, 1.52 50.15, 6.58 41.7 C11.64 33.25, 20.59 25.35, 30.51 19.17 C40.43 12.98, 52.17 7.84, 66.12 4.59 C80.08 1.34, 105.06 -0.16, 114.22 -0.34 C123.38 -0.52, 121.2 2.24, 121.1 3.52 M73.12 3.06 C85.68 -0.37, 103.89 -0.08, 117.43 1.19 C130.98 2.45, 142.96 5.6, 154.39 10.66 C165.83 15.71, 178.18 23.99, 186.04 31.52 C193.9 39.06, 199.43 47.16, 201.54 55.86 C203.64 64.56, 202.1 74.82, 198.66 83.73 C195.22 92.65, 189.34 102.42, 180.9 109.34 C172.47 116.25, 160.33 120.88, 148.03 125.22 C135.74 129.56, 120.93 134.72, 107.14 135.38 C93.36 136.04, 78 132.59, 65.31 129.19 C52.62 125.79, 40.81 121.47, 31.01 114.99 C21.21 108.5, 11.45 98.99, 6.51 90.29 C1.58 81.59, 0.74 71.51, 1.43 62.78 C2.12 54.05, 4.6 45.79, 10.67 37.92 C16.74 30.04, 27.26 21.62, 37.87 15.53 C48.47 9.44, 67.95 3.35, 74.3 1.38 C80.66 -0.59, 75.42 2.59, 75.99 3.73" stroke="#000000" stroke-width="1" fill="none"></path></g><g transform="translate(135.93127262557806 824.4735627869811) rotate(0 80.97736840609763 24.890584551054644)"><text x="0" y="11.593723034036397" font-family="Virgil, Segoe UI Emoji" font-size="13.27497842722912px" fill="#000000" text-anchor="start" style="white-space: pre;" direction="ltr">Error:</text><text x="0" y="28.187446068072795" font-family="Virgil, Segoe UI Emoji" font-size="13.27497842722912px" fill="#000000" text-anchor="start" style="white-space: pre;" direction="ltr">"Main InfinimumDB-Server</text><text x="0" y="44.78116910210919" font-family="Virgil, Segoe UI Emoji" font-size="13.27497842722912px" fill="#000000" text-anchor="start" style="white-space: pre;" direction="ltr">could not be reached"</text></g><g stroke-linecap="round"><g transform="translate(117.62858647767843 848.4839999530166) rotate(0 -32.701251878011945 0.2837080559761489)"><path d="M0.15 1.07 C-10.79 1.32, -53.74 1.15, -64.54 0.98 M-1.23 0.58 C-12.43 0.56, -54.83 -0.77, -65.55 -0.63" stroke="#000000" stroke-width="1" fill="none"></path></g><g transform="translate(117.62858647767843 848.4839999530166) rotate(0 -32.701251878011945 0.2837080559761489)"><path d="M-35.46 -10.75 C-46.66 -7.04, -59.18 -4.29, -66.24 -2.22 M-36.37 -9.92 C-43.27 -7.91, -49.06 -6.81, -66.46 -1.07" stroke="#000000" stroke-width="1" fill="none"></path></g><g transform="translate(117.62858647767843 848.4839999530166) rotate(0 -32.701251878011945 0.2837080559761489)"><path d="M-35.7 9.77 C-46.72 5.5, -59.15 0.26, -66.24 -2.22 M-36.61 10.6 C-43.45 8.14, -49.19 4.77, -66.46 -1.07" stroke="#000000" stroke-width="1" fill="none"></path></g></g><g stroke-linecap="round" transform="translate(10 823.6891322435542) rotate(0 18.91684425880149 19.248718719482213)"><path d="M25.69 1.24 C29.22 2.43, 33.11 6.24, 35.04 9.82 C36.97 13.4, 37.93 18.49, 37.27 22.74 C36.61 27, 34.28 32.6, 31.06 35.34 C27.84 38.09, 22.03 39.62, 17.93 39.22 C13.83 38.82, 9.56 35.96, 6.44 32.92 C3.32 29.89, -0.4 24.97, -0.78 21.01 C-1.17 17.04, 1.87 12.35, 4.12 9.14 C6.36 5.94, 8.47 2.79, 12.7 1.8 C16.93 0.81, 26.36 2.69, 29.5 3.22 C32.63 3.76, 31.83 4.71, 31.5 5.01 M18.53 -1.4 C22.28 -1.6, 27.71 2.65, 31.04 5.51 C34.37 8.37, 37.9 12.14, 38.5 15.76 C39.1 19.38, 36.55 23.85, 34.66 27.21 C32.77 30.57, 30.69 34.02, 27.15 35.91 C23.62 37.8, 17.46 39.87, 13.45 38.55 C9.44 37.23, 5.3 31.59, 3.09 27.99 C0.88 24.4, -0.56 20.66, 0.2 16.95 C0.97 13.25, 4.72 8.55, 7.71 5.76 C10.7 2.98, 16.4 0.9, 18.14 0.23 C19.89 -0.43, 18.05 1.32, 18.18 1.78" stroke="#000000" stroke-width="1" fill="none"></path></g><g stroke-linecap="round" transform="translate(19.956233820421744 832.3178682212549) rotate(0 8.96061043837966 9.624359359741106)"><path d="M9.96 -0.17 C11.73 -0.12, 13.4 2.2, 14.61 3.66 C15.83 5.13, 16.82 6.65, 17.23 8.64 C17.64 10.63, 18 13.91, 17.06 15.61 C16.12 17.3, 13.69 18.25, 11.61 18.82 C9.53 19.39, 6.35 19.82, 4.56 19.05 C2.78 18.27, 1.69 16.21, 0.92 14.16 C0.14 12.11, -0.66 8.96, -0.11 6.75 C0.45 4.55, 2.1 1.86, 4.26 0.91 C6.42 -0.03, 11.17 0.74, 12.87 1.08 C14.56 1.43, 14.48 2.95, 14.45 2.97 M14.07 2.42 C15.95 3.2, 17.05 2.93, 17.74 4.51 C18.43 6.09, 18.98 9.68, 18.21 11.88 C17.45 14.07, 14.75 16.6, 13.14 17.68 C11.52 18.76, 10.28 18.78, 8.53 18.36 C6.77 17.95, 4.17 16.76, 2.6 15.2 C1.03 13.65, -0.91 11.07, -0.89 9.02 C-0.87 6.98, 1.56 4.21, 2.74 2.95 C3.93 1.69, 4.3 1.89, 6.23 1.47 C8.16 1.05, 13.16 0.66, 14.3 0.41 C15.44 0.16, 13.52 -0.39, 13.1 -0.04" stroke="none" stroke-width="0" fill="#000"></path><path d="M7.77 -0.76 C9.42 -0.95, 11.75 0.2, 13.22 1.65 C14.7 3.1, 15.87 5.91, 16.62 7.93 C17.38 9.95, 18.25 11.95, 17.75 13.77 C17.24 15.59, 15.46 18.13, 13.57 18.84 C11.68 19.55, 8.46 18.47, 6.4 18.03 C4.34 17.59, 2.19 17.86, 1.22 16.19 C0.24 14.53, 0.14 10.23, 0.53 8.04 C0.92 5.86, 1.98 4.42, 3.57 3.08 C5.17 1.74, 8.81 0.51, 10.11 0 C11.42 -0.52, 11.39 -0.18, 11.41 -0.01 M9.87 0.53 C11.78 1.1, 16.15 3.59, 17.51 5.11 C18.88 6.63, 18.66 7.53, 18.06 9.66 C17.46 11.79, 15.52 16.19, 13.92 17.9 C12.31 19.61, 9.93 19.92, 8.43 19.92 C6.93 19.92, 6.47 19.21, 4.93 17.91 C3.38 16.6, -0.29 13.95, -0.85 12.09 C-1.41 10.23, 0.39 8.69, 1.57 6.75 C2.74 4.81, 4.57 1.59, 6.22 0.44 C7.88 -0.7, 10.44 -0.17, 11.5 -0.11 C12.57 -0.05, 12.52 0.82, 12.62 0.8" stroke="#000000" stroke-width="1" fill="none"></path></g><g stroke-linecap="round"><g transform="translate(524.3601299962743 930.2318148986269) rotate(0 0.4917873370740722 28.3379489948195)"><path d="M-0.38 -0.75 C-0.24 8.63, -0.01 47.69, 0.21 57.43 M1.62 1.47 C1.67 11.03, -0.47 46.68, -0.63 55.74" stroke="#000000" stroke-width="1" fill="none"></path></g><g transform="translate(524.3601299962743 930.2318148986269) rotate(0 0.4917873370740722 28.3379489948195)"><path d="M-10.47 29.13 C-5.46 37, -2.94 42.27, -2.1 54.27 M-9.7 28.2 C-6.52 39.21, -1.94 49.27, -0.55 55.89" stroke="#000000" stroke-width="1" fill="none"></path></g><g transform="translate(524.3601299962743 930.2318148986269) rotate(0 0.4917873370740722 28.3379489948195)"><path d="M8.87 29.92 C9.09 37.53, 6.81 42.61, -2.1 54.27 M9.64 28.99 C5.68 39.68, 3.14 49.45, -0.55 55.89" stroke="#000000" stroke-width="1" fill="none"></path></g></g><g transform="translate(537.9655746487856 938.7509176626829) rotate(0 10.951857202464026 8.296861517018215)"><text x="10.95185720246402" y="11.593723034036401" font-family="Virgil, Segoe UI Emoji" font-size="13.274978427229117px" fill="#000000" text-anchor="middle" style="white-space: pre;" direction="ltr">Yes</text></g><g stroke-linecap="round" transform="translate(431.81315786819306 987.3942314710278) rotate(0 91.50252987340073 71.35300904635653)"><path d="M93.9 0.36 C105.55 -0.85, 118.61 1.65, 129.66 5.81 C140.71 9.97, 152.06 17.92, 160.18 25.34 C168.29 32.76, 174.64 41.33, 178.34 50.33 C182.05 59.34, 184 69.64, 182.42 79.38 C180.84 89.12, 175.15 100.47, 168.84 108.75 C162.53 117.03, 154.55 123.54, 144.56 129.05 C134.58 134.57, 121.17 140.02, 108.94 141.83 C96.71 143.65, 83.41 142.3, 71.18 139.94 C58.96 137.58, 45.68 133.25, 35.58 127.66 C25.48 122.07, 16.51 114.66, 10.6 106.4 C4.7 98.14, 1.07 87.79, 0.12 78.11 C-0.82 68.43, 0.84 57.5, 4.92 48.33 C9 39.17, 16.08 30.19, 24.59 23.11 C33.1 16.02, 42.79 9.55, 55.98 5.84 C69.16 2.13, 94.26 1.44, 103.68 0.87 C113.1 0.3, 112.78 1.24, 112.51 2.44 M97.41 -0.08 C109.32 -0.53, 121.39 2.93, 132.2 7.56 C143 12.19, 154.22 20, 162.24 27.69 C170.26 35.37, 177.18 44.27, 180.31 53.65 C183.44 63.02, 183.24 74.31, 181.03 83.91 C178.81 93.51, 173.43 103.57, 167.03 111.24 C160.62 118.91, 152.62 124.63, 142.61 129.92 C132.61 135.22, 119.41 141.45, 106.99 143.01 C94.57 144.56, 80.07 141.95, 68.09 139.28 C56.11 136.6, 44.62 132.84, 35.11 126.97 C25.6 121.1, 16.84 112.52, 11.02 104.08 C5.2 95.64, 0.81 86.2, 0.17 76.34 C-0.46 66.48, 2.67 54.15, 7.21 44.91 C11.75 35.67, 18.87 27.74, 27.41 20.89 C35.95 14.04, 46.74 7.41, 58.45 3.82 C70.17 0.22, 91.29 -0.17, 97.72 -0.7 C104.14 -1.23, 97.33 -0.69, 96.98 0.62" stroke="#000000" stroke-width="1" fill="none"></path></g><g transform="translate(452.30317327178 1017.6893892197952) rotate(0 71.35300904635648 41.48430758509096)"><text x="71.35300904635649" y="11.593723034036397" font-family="Virgil, Segoe UI Emoji" font-size="13.274978427229115px" fill="#000000" text-anchor="middle" style="white-space: pre;" direction="ltr">Register this server </text><text x="71.35300904635649" y="28.187446068072795" font-family="Virgil, Segoe UI Emoji" font-size="13.274978427229115px" fill="#000000" text-anchor="middle" style="white-space: pre;" direction="ltr">at the main server </text><text x="71.35300904635649" y="44.78116910210919" font-family="Virgil, Segoe UI Emoji" font-size="13.274978427229115px" fill="#000000" text-anchor="middle" style="white-space: pre;" direction="ltr">and receive host </text><text x="71.35300904635649" y="61.37489213614559" font-family="Virgil, Segoe UI Emoji" font-size="13.274978427229115px" fill="#000000" text-anchor="middle" style="white-space: pre;" direction="ltr">addresses and ports </text><text x="71.35300904635649" y="77.96861517018199" font-family="Virgil, Segoe UI Emoji" font-size="13.274978427229115px" fill="#000000" text-anchor="middle" style="white-space: pre;" direction="ltr">for all other servers</text></g><g stroke-linecap="round" transform="translate(739.957876267262 1003.7506618712005) rotate(0 73.917493515253 58.22888264670951)"><path d="M72.66 -0.03 C100.09 20.97, 126.81 45.09, 146.47 59.14 M73.53 -0.81 C94.18 16.77, 113.67 30.82, 147.79 58.08 M146.76 60.29 C124.51 76.42, 101.67 96.19, 75.99 117.35 M146.97 59.89 C119.56 81.35, 90.27 102.14, 73.52 115.48 M73.33 117.96 C50.39 95.62, 24 76.88, 0.47 58.13 M73.56 116.17 C46.93 94.65, 20.26 74.51, -0.19 59.45 M0.49 59.14 C26.62 36.85, 57.37 12.95, 72.44 0.41 M0.5 59.44 C22.92 41.56, 46.36 22.44, 74.28 -0.5" stroke="#000000" stroke-width="1" fill="none"></path></g><g transform="translate(752.8406394227775 1040.015489301952) rotate(0 60.73302630457317 16.59372303403643)"><text x="60.7330263045732" y="11.593723034036401" font-family="Virgil, Segoe UI Emoji" font-size="13.274978427229115px" fill="#000000" text-anchor="middle" style="white-space: pre;" direction="ltr">All data </text><text x="60.7330263045732" y="28.187446068072802" font-family="Virgil, Segoe UI Emoji" font-size="13.274978427229115px" fill="#000000" text-anchor="middle" style="white-space: pre;" direction="ltr">received correctly?</text></g><g transform="translate(618.261077725572 1042.3670317509986) rotate(0 45.50000000000003 8.5)"><text x="45.5" y="12" font-family="Virgil, Segoe UI Emoji" font-size="13.274978427229122px" fill="#000000" text-anchor="middle" style="white-space: pre;" direction="ltr">with Infinileap</text></g><g stroke-linecap="round"><g transform="translate(813.2332146870865 1121.3188073763088) rotate(0 0.6575994131068228 44.28407405418341)"><path d="M0.99 0.15 C1.3 15.07, 1.34 74.51, 1.18 89.38 M0.05 -0.81 C0.34 13.78, 0.89 73.01, 0.76 87.74" stroke="#000000" stroke-width="1" fill="none"></path></g><g transform="translate(813.2332146870865 1121.3188073763088) rotate(0 0.6575994131068228 44.28407405418341)"><path d="M-9.29 61.23 C-5.53 66.18, -2.99 73.8, -0.89 88.19 M-9.75 60.35 C-5 69.96, -2.07 81.39, -0.15 88.73" stroke="#000000" stroke-width="1" fill="none"></path></g><g transform="translate(813.2332146870865 1121.3188073763088) rotate(0 0.6575994131068228 44.28407405418341)"><path d="M11.23 61.2 C9.98 66.32, 7.5 73.96, -0.89 88.19 M10.77 60.32 C7.68 69.97, 2.78 81.41, -0.15 88.73" stroke="#000000" stroke-width="1" fill="none"></path></g></g><g transform="translate(820.9654150788765 1146.818724830112) rotate(0 10.40878990316827 10.408789903168213)"><text x="10.40878990316825" y="14.8175798063365" font-family="Virgil, Segoe UI Emoji" font-size="16.654063845069192px" fill="#000000" text-anchor="middle" style="white-space: pre;" direction="ltr">No</text></g><g stroke-linecap="round" transform="translate(712.1407623811144 1213.676343454521) rotate(0 100.88983604694135 67.038641057507)"><path d="M66.08 4.08 C77.88 0.19, 95.11 -0.24, 108.87 0.24 C122.64 0.73, 136.75 2.63, 148.68 7 C160.61 11.37, 172.17 19.12, 180.46 26.46 C188.74 33.8, 194.95 42.16, 198.39 51.05 C201.84 59.93, 203.44 70.81, 201.12 79.75 C198.8 88.69, 192.36 97.37, 184.48 104.67 C176.61 111.98, 165.63 118.62, 153.87 123.58 C142.12 128.54, 127.6 133.08, 113.97 134.44 C100.34 135.8, 85.21 134.39, 72.1 131.73 C58.99 129.07, 45.77 124.45, 35.31 118.5 C24.86 112.55, 15.27 104.24, 9.37 96.03 C3.46 87.81, 0.14 78.28, -0.11 69.21 C-0.37 60.15, 2.57 50.08, 7.83 41.63 C13.09 33.18, 20.62 25.06, 31.45 18.51 C42.29 11.96, 64.81 4.87, 72.84 2.31 C80.87 -0.25, 79.04 2.13, 79.64 3.14 M61.03 5.15 C72.33 0.7, 89.79 -0.92, 103.49 -0.79 C117.19 -0.66, 131.11 1.88, 143.24 5.94 C155.38 10, 167.52 16.77, 176.29 23.56 C185.05 30.34, 191.56 37.9, 195.85 46.66 C200.14 55.42, 203.5 66.87, 202.03 76.11 C200.57 85.36, 194.23 94.73, 187.06 102.14 C179.89 109.54, 170.19 115.25, 159.02 120.54 C147.84 125.83, 133.68 132.05, 120.03 133.85 C106.37 135.65, 90.34 133.69, 77.08 131.33 C63.82 128.96, 51.12 124.99, 40.47 119.64 C29.83 114.3, 19.71 106.96, 13.19 99.27 C6.67 91.58, 2.88 82.51, 1.38 73.48 C-0.13 64.45, -0.26 53.67, 4.16 45.11 C8.58 36.55, 18.27 28.78, 27.89 22.12 C37.52 15.47, 56.15 7.89, 61.92 5.18 C67.69 2.48, 61.95 4.6, 62.5 5.9" stroke="#000000" stroke-width="1" fill="none"></path></g><g transform="translate(728.6987239673743 1244.329475459213) rotate(0 84 34)"><text x="84" y="12" font-family="Virgil, Segoe UI Emoji" font-size="13.274978427229117px" fill="#000000" text-anchor="middle" style="white-space: pre;" direction="ltr">Error:</text><text x="84" y="29" font-family="Virgil, Segoe UI Emoji" font-size="13.274978427229117px" fill="#000000" text-anchor="middle" style="white-space: pre;" direction="ltr">"There was an error while</text><text x="84" y="46" font-family="Virgil, Segoe UI Emoji" font-size="13.274978427229117px" fill="#000000" text-anchor="middle" style="white-space: pre;" direction="ltr">fetching data from </text><text x="84" y="63" font-family="Virgil, Segoe UI Emoji" font-size="13.274978427229117px" fill="#000000" text-anchor="middle" style="white-space: pre;" direction="ltr">the main server"</text></g><g stroke-linecap="round" transform="translate(792.2733594327522 1412.4993158077914) rotate(0 18.916844258801518 19.248718719482213)"><path d="M13.86 0.91 C17.33 -0.52, 21.99 0.02, 25.77 1.61 C29.54 3.2, 34.6 6.56, 36.52 10.45 C38.44 14.33, 38.25 20.83, 37.31 24.91 C36.36 29, 34.16 32.76, 30.86 34.98 C27.56 37.19, 21.77 38.63, 17.51 38.18 C13.25 37.74, 8.05 35.28, 5.31 32.32 C2.57 29.37, 1.37 24.51, 1.08 20.44 C0.8 16.36, 0.97 11.38, 3.58 7.88 C6.2 4.38, 14.18 0.7, 16.77 -0.58 C19.36 -1.86, 19.12 -0.28, 19.12 0.22 M17.86 -0.49 C21.65 -0.9, 27.08 1.71, 30.54 4.04 C34.01 6.37, 37.96 9.31, 38.64 13.49 C39.33 17.67, 36.7 25.26, 34.68 29.12 C32.65 32.98, 30.05 35.04, 26.5 36.66 C22.95 38.28, 17.41 39.95, 13.39 38.82 C9.38 37.7, 4.65 33.61, 2.4 29.9 C0.14 26.19, -0.84 20.92, -0.16 16.59 C0.52 12.25, 3.58 6.5, 6.45 3.9 C9.32 1.31, 15 1.67, 17.05 1.02 C19.1 0.36, 18.52 -0.18, 18.76 -0.01" stroke="#000000" stroke-width="1" fill="none"></path></g><g stroke-linecap="round" transform="translate(802.2295932531733 1421.1280517854898) rotate(0 8.96061043837966 9.624359359741106)"><path d="M4.34 1.25 C6 0.38, 8.82 0.62, 10.85 0.93 C12.88 1.25, 15.35 1.46, 16.5 3.13 C17.64 4.8, 17.83 8.66, 17.72 10.94 C17.62 13.21, 17.19 15.34, 15.86 16.77 C14.53 18.19, 11.82 19.37, 9.76 19.51 C7.69 19.64, 4.87 18.95, 3.47 17.58 C2.06 16.22, 1.75 13.19, 1.32 11.32 C0.88 9.46, 0.08 8.33, 0.83 6.39 C1.58 4.45, 4.63 0.61, 5.8 -0.31 C6.97 -1.23, 7.77 0.45, 7.84 0.86 M10.67 -0.77 C12.79 -0.56, 14.76 1.08, 15.91 2.53 C17.06 3.97, 17.62 5.78, 17.58 7.9 C17.54 10.02, 16.74 13.3, 15.65 15.26 C14.56 17.21, 12.84 19.02, 11.03 19.62 C9.22 20.22, 6.69 19.66, 4.8 18.86 C2.91 18.06, 0.26 16.71, -0.3 14.84 C-0.85 12.98, 0.5 9.98, 1.46 7.66 C2.41 5.34, 3.8 2.08, 5.44 0.92 C7.08 -0.24, 10.72 0.86, 11.28 0.7 C11.83 0.54, 8.93 -0.34, 8.76 -0.03" stroke="none" stroke-width="0" fill="#000"></path><path d="M9.59 -0.92 C11.28 -0.86, 13.65 1.55, 14.95 3.12 C16.25 4.68, 16.99 6.37, 17.4 8.47 C17.81 10.57, 18.36 14.01, 17.41 15.73 C16.46 17.46, 13.74 18.43, 11.71 18.82 C9.68 19.21, 7.14 18.73, 5.23 18.1 C3.33 17.46, 1.25 16.74, 0.29 15.02 C-0.67 13.3, -0.96 9.94, -0.51 7.79 C-0.06 5.65, 1.36 3.5, 3.01 2.18 C4.66 0.85, 8.13 0.13, 9.4 -0.16 C10.68 -0.45, 10.49 0.24, 10.66 0.41 M10.45 0.7 C12.36 1.22, 15.4 3.83, 16.45 5.2 C17.5 6.57, 16.67 7.11, 16.74 8.93 C16.81 10.76, 18.02 14.48, 16.87 16.15 C15.72 17.82, 11.79 18.81, 9.84 18.94 C7.88 19.06, 6.74 18.02, 5.16 16.89 C3.58 15.76, 1.17 13.89, 0.33 12.15 C-0.5 10.42, -0.38 8.43, 0.14 6.48 C0.66 4.52, 1.48 1.28, 3.45 0.43 C5.43 -0.43, 10.79 1.2, 11.96 1.32 C13.14 1.44, 10.7 1.4, 10.51 1.15" stroke="#000000" stroke-width="1" fill="none"></path></g><g stroke-linecap="round"><g transform="translate(809.0288905995311 1347.23008919986) rotate(0 0.3741858269367526 32.506385965797335)"><path d="M0.41 0.41 C0.43 11.24, -0.56 53.49, -0.74 64.12 M-0.84 -0.42 C-0.35 10.66, 1.74 54.47, 1.59 65.43" stroke="#000000" stroke-width="1" fill="none"></path></g><g transform="translate(809.0288905995311 1347.23008919986) rotate(0 0.3741858269367526 32.506385965797335)"><path d="M-8.59 36.24 C-7.77 42.63, -5.19 51.87, 0.94 64.9 M-8.97 37.14 C-7.25 42.43, -5.83 49.01, 1.04 65.24" stroke="#000000" stroke-width="1" fill="none"></path></g><g transform="translate(809.0288905995311 1347.23008919986) rotate(0 0.3741858269367526 32.506385965797335)"><path d="M11.93 35.8 C8.13 42.36, 6.1 51.69, 0.94 64.9 M11.54 36.7 C9.13 41.92, 6.42 48.59, 1.04 65.24" stroke="#000000" stroke-width="1" fill="none"></path></g></g><g stroke-linecap="round"><g transform="translate(886.7852620750168 1061.8933254353055) rotate(0 51.49104344479247 -0.06333265786190623)"><path d="M0.57 1.11 C17.7 1.27, 86.38 0.73, 103.57 0.35 M-0.59 0.65 C16.35 0.55, 85.51 -1.13, 102.82 -1.27" stroke="#000000" stroke-width="1" fill="none"></path></g><g transform="translate(886.7852620750168 1061.8933254353055) rotate(0 51.49104344479247 -0.06333265786190623)"><path d="M76.66 10.1 C86.69 6.34, 94.3 2.05, 103.79 -1.41 M74.97 9.95 C85.44 6.61, 93.72 1.24, 103.27 -0.69" stroke="#000000" stroke-width="1" fill="none"></path></g><g transform="translate(886.7852620750168 1061.8933254353055) rotate(0 51.49104344479247 -0.06333265786190623)"><path d="M76.31 -10.42 C86.36 -6.71, 94.09 -3.52, 103.79 -1.41 M74.62 -10.56 C85.25 -6.8, 93.66 -5.06, 103.27 -0.69" stroke="#000000" stroke-width="1" fill="none"></path></g></g><g transform="translate(920.2863900389639 1036.9984487503086) rotate(0 10.951857202463998 8.296861517018215)"><text x="10.95185720246402" y="11.593723034036401" font-family="Virgil, Segoe UI Emoji" font-size="13.274978427229117px" fill="#000000" text-anchor="middle" style="white-space: pre;" direction="ltr">Yes</text></g><g stroke-linecap="round" transform="translate(992.8162201273658 1000.7639669519822) rotate(0 88.09758410797502 63.35785158450267)"><path d="M88.29 -0.69 C100.45 -1.48, 115.53 2.98, 126.99 7.03 C138.45 11.09, 149.33 16.67, 157.04 23.65 C164.74 30.62, 170.49 40.04, 173.19 48.9 C175.89 57.75, 176.04 67.8, 173.25 76.79 C170.47 85.78, 164.47 95.4, 156.46 102.84 C148.46 110.28, 136.6 117.39, 125.24 121.42 C113.87 125.46, 100.97 127.07, 88.27 127.04 C75.57 127.01, 60.74 125.23, 49.06 121.23 C37.37 117.24, 26.09 110.41, 18.15 103.08 C10.21 95.74, 4.01 86.16, 1.42 77.2 C-1.18 68.23, -0.57 58.26, 2.58 49.31 C5.73 40.36, 12.41 30.82, 20.31 23.48 C28.21 16.15, 37.64 9.33, 49.98 5.28 C62.33 1.23, 85.81 -0.41, 94.36 -0.82 C102.9 -1.22, 101.3 1.78, 101.28 2.83 M124.64 5.1 C136.04 7.81, 147.39 15.69, 155.43 22.64 C163.48 29.6, 169.91 37.94, 172.92 46.81 C175.94 55.68, 176.11 66.86, 173.54 75.85 C170.98 84.85, 164.9 93.24, 157.53 100.78 C150.16 108.31, 140.36 116.64, 129.33 121.06 C118.3 125.48, 104.22 127.05, 91.36 127.3 C78.51 127.54, 64.18 126.38, 52.19 122.51 C40.2 118.64, 27.86 111.47, 19.43 104.07 C11 96.67, 4.62 87.22, 1.59 78.11 C-1.44 69, -1.45 58.08, 1.24 49.43 C3.92 40.77, 10 33.36, 17.68 26.19 C25.35 19.02, 36.15 10.68, 47.28 6.41 C58.42 2.15, 71.82 0.56, 84.51 0.59 C97.2 0.63, 116.74 5.35, 123.44 6.62 C130.15 7.89, 125.05 7.34, 124.72 8.22" stroke="#000000" stroke-width="1" fill="none"></path></g><g transform="translate(1005.3531129704969 1038.990746875824) rotate(0 75.5 34)"><text x="75.5" y="12" font-family="Virgil, Segoe UI Emoji" font-size="13.274978427229115px" fill="#000000" text-anchor="middle" style="white-space: pre;" direction="ltr">Create InfinileapServer</text><text x="75.5" y="29" font-family="Virgil, Segoe UI Emoji" font-size="13.274978427229115px" fill="#000000" text-anchor="middle" style="white-space: pre;" direction="ltr">with arguments listen </text><text x="75.5" y="46" font-family="Virgil, Segoe UI Emoji" font-size="13.274978427229115px" fill="#000000" text-anchor="middle" style="white-space: pre;" direction="ltr">address and port</text><text x="75.5" y="63" font-family="Virgil, Segoe UI Emoji" font-size="13.274978427229115px" fill="#000000" text-anchor="middle" style="white-space: pre;" direction="ltr"></text></g><g stroke-linecap="round"><g transform="translate(618.680643262094 1063.9979854934993) rotate(0 61.049937862226926 0.7606334522564566)"><path d="M0.17 0.68 C20.58 0.82, 102.62 -0.05, 123.3 -0.01 M-1.2 -0.01 C18.98 0.41, 101.5 1.68, 122.37 1.52" stroke="#000000" stroke-width="1" fill="none"></path></g><g transform="translate(618.680643262094 1063.9979854934993) rotate(0 61.049937862226926 0.7606334522564566)"><path d="M95.26 11.68 C104.61 9.53, 116.61 4.36, 120.72 2.02 M93.27 11.3 C105.19 8.61, 114.67 3.55, 122.95 1.2" stroke="#000000" stroke-width="1" fill="none"></path></g><g transform="translate(618.680643262094 1063.9979854934993) rotate(0 61.049937862226926 0.7606334522564566)"><path d="M95.38 -8.84 C104.54 -3.42, 116.49 -1, 120.72 2.02 M93.38 -9.22 C105.3 -4.23, 114.74 -1.6, 122.95 1.2" stroke="#000000" stroke-width="1" fill="none"></path></g></g><g stroke-linecap="round"><g transform="translate(1084.165926861187 1129.1365833370076) rotate(0 0.0016981129394935124 59.60788171254876)"><path d="M0.43 -0.98 C0.63 18.85, 0.8 99.08, 0.8 119.27 M-0.8 1.12 C-0.66 21.03, 0.16 100.16, 0.28 120.19" stroke="#000000" stroke-width="1" fill="none"></path></g><g transform="translate(1084.165926861187 1129.1365833370076) rotate(0 0.0016981129394935124 59.60788171254876)"><path d="M-11.85 93.43 C-9.27 100.37, -4.96 107.8, 0.74 121.39 M-9.51 93.09 C-7.5 99.9, -4.86 108.05, 0.59 120.75" stroke="#000000" stroke-width="1" fill="none"></path></g><g transform="translate(1084.165926861187 1129.1365833370076) rotate(0 0.0016981129394935124 59.60788171254876)"><path d="M8.67 93.26 C5.74 100.32, 4.53 107.79, 0.74 121.39 M11.01 92.91 C7.34 99.8, 4.29 107.99, 0.59 120.75" stroke="#000000" stroke-width="1" fill="none"></path></g></g><g stroke-linecap="round" transform="translate(999.6951999917799 1497.53751758011) rotate(0 88.09758410797502 63.35785158450267)"><path d="M90.62 -0.42 C102.76 -1.14, 118.36 2.57, 129.65 7.02 C140.93 11.46, 150.71 18.88, 158.31 26.22 C165.92 33.56, 172.74 42.25, 175.26 51.07 C177.78 59.89, 176.78 70.28, 173.45 79.14 C170.12 88.01, 163.68 97.27, 155.27 104.26 C146.87 111.25, 134.79 117.2, 123.03 121.08 C111.26 124.97, 97.32 127.89, 84.67 127.58 C72.02 127.26, 58.36 123.69, 47.11 119.19 C35.86 114.69, 24.92 107.97, 17.17 100.57 C9.43 93.16, 2.91 83.51, 0.65 74.74 C-1.62 65.97, 0.33 56.72, 3.59 47.95 C6.84 39.17, 11.89 29.22, 20.19 22.09 C28.49 14.95, 40.98 8.86, 53.38 5.13 C65.78 1.41, 87.57 0.27, 94.62 -0.26 C101.67 -0.8, 95.88 0.77, 95.67 1.93 M123.08 4.13 C134.99 6.7, 146.92 14.17, 155.43 20.93 C163.93 27.7, 171.13 35.58, 174.13 44.72 C177.14 53.85, 175.77 66.5, 173.46 75.74 C171.15 84.98, 167.61 92.96, 160.27 100.15 C152.94 107.33, 140.75 114.66, 129.43 118.83 C118.11 123.01, 104.9 124.74, 92.37 125.22 C79.85 125.7, 66.2 124.95, 54.27 121.71 C42.34 118.47, 29.03 112.81, 20.77 105.78 C12.52 98.74, 8.16 88.35, 4.75 79.5 C1.33 70.66, -1.8 61.33, 0.27 52.68 C2.33 44.04, 9.34 35.11, 17.15 27.61 C24.95 20.12, 35.86 12.27, 47.1 7.73 C58.33 3.18, 72.22 0.85, 84.57 0.33 C96.92 -0.19, 114.8 3.7, 121.18 4.62 C127.56 5.55, 123.33 4.76, 122.85 5.89" stroke="#000000" stroke-width="1" fill="none"></path></g><g transform="translate(1024.5556222466757 1542.8231210333633) rotate(0 62 17)"><text x="62" y="12" font-family="Virgil, Segoe UI Emoji" font-size="13.274978427229115px" fill="#000000" text-anchor="middle" style="white-space: pre;" direction="ltr">Start listening on </text><text x="62" y="29" font-family="Virgil, Segoe UI Emoji" font-size="13.274978427229115px" fill="#000000" text-anchor="middle" style="white-space: pre;" direction="ltr">listen address:port</text></g><g stroke-linecap="round" transform="translate(1072.1224354743401 1752.5925912353478) rotate(0 18.916844258801518 19.248718719482213)"><path d="M21.18 -0.14 C25.04 0.13, 28.91 3.38, 31.78 6.27 C34.65 9.17, 37.95 13.3, 38.42 17.23 C38.89 21.17, 37.01 26.47, 34.62 29.86 C32.22 33.25, 28.1 36.49, 24.06 37.59 C20.02 38.69, 14.16 38.02, 10.37 36.48 C6.58 34.94, 2.97 32.08, 1.33 28.34 C-0.32 24.6, -0.57 18.28, 0.5 14.04 C1.57 9.8, 3.92 5.21, 7.77 2.91 C11.61 0.61, 20.08 0.11, 23.58 0.23 C27.09 0.35, 28.88 3.23, 28.79 3.62 M25.92 0.89 C29.7 2.07, 34.5 7.05, 36.45 11.06 C38.4 15.08, 38.7 21.18, 37.63 24.98 C36.56 28.79, 33.21 31.8, 30.03 33.91 C26.86 36.02, 22.39 37.85, 18.59 37.65 C14.78 37.46, 10.08 35.69, 7.21 32.74 C4.35 29.8, 2.29 23.76, 1.38 19.98 C0.47 16.2, -0.38 13.27, 1.75 10.05 C3.88 6.83, 10.19 2.08, 14.17 0.65 C18.14 -0.77, 23.6 1.51, 25.59 1.49 C27.59 1.48, 26.04 0.25, 26.11 0.55" stroke="#000000" stroke-width="1" fill="none"></path></g><g stroke-linecap="round"><g transform="translate(1091.8947832908852 1625.8243916256847) rotate(0 -0.12339916104508575 60.55655026691181)"><path d="M0.83 0.2 C1.03 20.29, 0.03 100.49, 0.14 120.6 M-0.19 -0.74 C-0.1 19.5, -1.3 101.38, -1.08 121.85" stroke="#000000" stroke-width="1" fill="none"></path></g><g transform="translate(1091.8947832908852 1625.8243916256847) rotate(0 -0.12339916104508575 60.55655026691181)"><path d="M-10.9 92.77 C-10 100.84, -7.39 104.46, 0.29 123.18 M-11.06 93.39 C-9.03 101.13, -6.11 109.99, -1.21 121.56" stroke="#000000" stroke-width="1" fill="none"></path></g><g transform="translate(1091.8947832908852 1625.8243916256847) rotate(0 -0.12339916104508575 60.55655026691181)"><path d="M9.62 92.84 C6.22 101.04, 4.54 104.64, 0.29 123.18 M9.46 93.46 C5.88 101.11, 3.19 109.95, -1.21 121.56" stroke="#000000" stroke-width="1" fill="none"></path></g></g><g stroke-linecap="round" transform="translate(968.8712154723037 1251.5686750879952) rotate(0 117.64705882352933 74.11764705882354)"><path d="M64.47 8.29 C76.42 3.11, 93.18 0.47, 108.08 -0.33 C122.98 -1.14, 139.58 0.47, 153.85 3.45 C168.13 6.43, 182.45 11.46, 193.73 17.54 C205.01 23.62, 214.75 31.43, 221.53 39.9 C228.3 48.38, 232.99 58.92, 234.39 68.41 C235.78 77.9, 234.48 87.73, 229.92 96.84 C225.35 105.95, 216.96 115.67, 207.01 123.06 C197.05 130.44, 183.41 137.07, 170.17 141.14 C156.93 145.22, 142.48 146.9, 127.55 147.51 C112.62 148.12, 94.93 147.79, 80.58 144.8 C66.23 141.81, 52.78 135.75, 41.44 129.57 C30.1 123.38, 19.43 116.03, 12.53 107.7 C5.62 99.38, 1.15 89.04, 0.01 79.62 C-1.13 70.2, 0.82 60.02, 5.68 51.19 C10.54 42.36, 18.02 34.34, 29.15 26.65 C40.29 18.96, 63.66 8.53, 72.47 5.07 C81.28 1.61, 81.34 4.61, 82.02 5.9 M161.4 6.38 C175.58 8.63, 189.82 15.08, 200.56 21.43 C211.31 27.79, 220.03 36.12, 225.85 44.51 C231.67 52.9, 235.34 62.35, 235.5 71.76 C235.67 81.17, 232.47 91.78, 226.83 100.99 C221.19 110.21, 211.9 120.01, 201.67 127.05 C191.43 134.09, 179.08 139.64, 165.43 143.23 C151.79 146.83, 135.2 148.63, 119.82 148.61 C104.44 148.6, 87.19 146.49, 73.16 143.15 C59.12 139.82, 46.4 135.27, 35.6 128.6 C24.81 121.93, 14.29 111.77, 8.38 103.12 C2.46 94.48, 0.26 86, 0.11 76.7 C-0.04 67.4, 2.12 56.42, 7.48 47.3 C12.83 38.19, 21.54 29.04, 32.23 22 C42.93 14.96, 57.8 8.54, 71.65 5.05 C85.5 1.57, 100.55 0.85, 115.35 1.09 C130.15 1.33, 152.94 5.4, 160.44 6.49 C167.94 7.58, 161.04 6.76, 160.34 7.66" stroke="#000000" stroke-width="1" fill="none"></path></g><g transform="translate(974.9888625311274 1300.019655480152) rotate(0 116.49999999999994 20)"><text x="116.5" y="14" font-family="Virgil, Segoe UI Emoji" font-size="16px" fill="#000000" text-anchor="middle" style="white-space: pre;" direction="ltr">Register event handler </text><text x="116.5" y="34" font-family="Virgil, Segoe UI Emoji" font-size="16px" fill="#000000" text-anchor="middle" style="white-space: pre;" direction="ltr">for "get" and "put" requests </text></g><g stroke-linecap="round"><g transform="translate(1083.5770978252451 1397.7451456762294) rotate(0 -0.6672782837669047 49.09560769849304)"><path d="M-0.1 -0.11 C-0.05 16.36, 0.4 82.89, 0.25 99.41 M-1.61 -1.22 C-1.7 14.82, -1.06 80.5, -0.56 97.41" stroke="#000000" stroke-width="1" fill="none"></path></g><g transform="translate(1083.5770978252451 1397.7451456762294) rotate(0 -0.6672782837669047 49.09560769849304)"><path d="M-11.51 69.83 C-7.6 76.09, -5.06 85.73, -0.62 96.25 M-11.04 69.62 C-6.66 78.7, -2.64 89.16, -1.18 97.46" stroke="#000000" stroke-width="1" fill="none"></path></g><g transform="translate(1083.5770978252451 1397.7451456762294) rotate(0 -0.6672782837669047 49.09560769849304)"><path d="M9 69.46 C6.83 75.81, 3.27 85.56, -0.62 96.25 M9.47 69.25 C6.44 78.35, 3.03 88.95, -1.18 97.46" stroke="#000000" stroke-width="1" fill="none"></path></g></g></svg>