<svg version="1.1" xmlns="http://www.w3.org/2000/svg" viewBox="0 0 1650 988.3333333333334" width="1650"
     height="988.3333333333334">
    <!-- svg-source:excalidraw -->

    <defs>
        <style>
            @font-face {
            font-family: "Virgil";
            src: url("https://excalidraw.com/Virgil.woff2");
            }
            @font-face {
            font-family: "Cascadia";
            src: url("https://excalidraw.com/Cascadia.woff2");
            }
        </style>
    </defs>
    <rect x="0" y="0" width="1650" height="988.3333333333334" fill="#ffffff"/>
    <g transform="translate(732.3095238095239 169.08335367838527) rotate(0 111.5 22.5)">
        <text x="0" y="32" font-family="Virgil, Segoe UI Emoji" font-size="36px" fill="#000000"
              style="white-space: pre;">Client-Server
        </text>
    </g>
    <g stroke-linecap="round" transform="translate(724.3095238095239 812.0833536783853) rotate(0 131 68)"><![CDATA[
        ]]><path d="M-0.95 1.38 C56.69 -3.26, 116.75 -2.59, 261.81 -1.33 M-0.34 -0.68 C80.59 0.83, 162.3 0.09, 262.39 0.41 M261.98 -0.97 C263.53 29.07, 261.08 60.7, 263.23 134.15 M262.15 -0.5 C262.04 36.71, 261.48 74.5, 262.66 135.01 M260.72 135.78 C204.95 136.62, 149.16 137.16, 0.05 135.02 M261.57 135.73 C172.1 133.91, 82.77 133.57, -0.27 136.33 M-0.47 134.17 C2.79 86.21, -0.52 41.04, -1.35 1.34 M0.34 136.7 C0.09 96.84, -0.69 57.17, -0.34 -0.88"
              stroke="#000000" stroke-width="1" fill="none"/>
    </g>
    <g stroke-linecap="round">
        <g transform="translate(846.1690030852801 784.4639298009374) rotate(0 0.24773060069458097 -92.9444982878864)"><![CDATA[
            ]]><path d="M-0.71 0.38 C-0.43 -30.5, 0.92 -155.38, 1.19 -186.27 M1.12 -0.47 C1.39 -31.14, 0.95 -154.12, 0.87 -185.23"
                  stroke="#000000" stroke-width="1" fill="none"/>
        </g>
    </g>
    <g transform="translate(806.3095238095239 787.0833536783853) rotate(0 43.5 12.5)">
        <text x="0" y="18" font-family="Virgil, Segoe UI Emoji" font-size="20px" fill="#000000"
              style="white-space: pre;">Infinileap
        </text>
    </g>
    <g stroke-linecap="round" transform="translate(800.3095238095239 778.0833536783853) rotate(0 50 21)"><![CDATA[
        ]]><path d="M-0.82 0.27 C34.44 -0.97, 70.36 -0.22, 101.71 -1.85 M0.78 -0.05 C36.21 0.04, 71.45 0.39, 100.37 0.79 M98.06 -1.5 C101.21 14.56, 100.36 24.35, 99.05 42.29 M99.77 0.25 C99.29 8.45, 100.35 17.71, 100.14 42.08 M100.27 42.25 C78.44 43.36, 55.99 42.08, 1.99 41.48 M100.4 42.67 C59.46 40.86, 21.12 41.05, 0.41 41.01 M-0.26 41.31 C0.69 27.05, -1.28 15.52, 0.53 0.77 M0.66 41.78 C-0.88 27.31, -0.78 12.92, -0.16 -0.68"
              stroke="#000000" stroke-width="1" fill="none"/>
    </g>
    <g stroke-linecap="round" transform="translate(635.3095238095239 290.08335367838527) rotate(0 204.5 89)">
        <path d="M0.21 -1.05 C128.04 -0.08, 254.49 -0.02, 408.02 0.36 M0.04 -0.54 C102.12 1.31, 205.7 0.53, 409.2 0.01 M408.67 -0.58 C408.53 62.36, 406.08 127.01, 409.86 177.57 M409.91 0.75 C408.63 41.7, 408.76 82.28, 409.76 178.14 M408.29 176.9 C290.25 176.17, 169.22 175.2, 0.44 177.22 M408.52 177.93 C287.44 179.38, 166.64 179.28, -0.36 178.25 M1.56 177.62 C0.6 127.69, 0.5 75.97, 0.74 -1.89 M-0.51 178.66 C0.33 111.35, 0.5 43.77, -0.7 -0.34"
              stroke="#000000" stroke-width="1" fill="none"/>
    </g>
    <g stroke-linecap="round" transform="translate(677.3095238095239 310.08335367838527) rotate(0 76.5 29.5)">
        <path d="M-1.24 -1.98 C41.98 -0.55, 82.07 -1.18, 151.31 -0.38 M0.85 -0.03 C58.74 0.59, 119.07 0.72, 153.05 0.75 M151.83 -0.82 C153.31 18.64, 152.62 34.86, 153.06 58.96 M153.96 -0.14 C151.93 17.14, 152.56 35.08, 152.76 59.48 M151.97 60.91 C108.67 59.25, 65.04 58.08, -1.91 60.34 M152.15 58.66 C96.52 59.68, 40.95 61.3, 0.29 59.51 M-0.06 57.45 C-0.2 43.13, -0.84 30.6, 1.28 -0.47 M-0.18 58.32 C0.48 40.38, -0.42 23.4, -0.26 -0.26"
              stroke="#000000" stroke-width="1" fill="none"/>
    </g>
    <g transform="translate(680.3095238095239 327.08335367838527) rotate(0 73 12.5)">
        <text x="73" y="18" font-family="Virgil, Segoe UI Emoji" font-size="20px" fill="#000000" text-anchor="middle"
              style="white-space: pre;">Apache Plasma
        </text>
    </g>
    <g transform="translate(884.3095238095239 324.08335367838527) rotate(0 43.5 12.5)">
        <text x="0" y="18" font-family="Virgil, Segoe UI Emoji" font-size="20px" fill="#000000"
              style="white-space: pre;">Infinileap
        </text>
    </g>
    <g stroke-linecap="round" transform="translate(878.3095238095239 315.08335367838527) rotate(0 50 21)">
        <path d="M-0.76 1.9 C32.48 -0.21, 67.62 -1.6, 99.99 -1.14 M0.2 -0.99 C36.21 0.46, 73.46 1.03, 100.96 0.46 M98.97 1.37 C100.5 14.7, 99.87 24.89, 100.38 43.84 M99.47 -0.19 C100.68 14.72, 100.18 30.35, 99.69 41.94 M99.56 40.53 C81.09 40.75, 60.38 43.02, -1.01 42.42 M99.29 42.2 C60.54 42.46, 19.96 43.1, 0.08 42.23 M-1.65 41.62 C1.55 31.35, -0.97 24.66, -0.46 -1.84 M-0.78 42.68 C0.63 27.34, 0.08 12.32, 0.24 -0.1"
              stroke="#000000" stroke-width="1" fill="none"/>
    </g>
    <g stroke-linecap="round" transform="translate(1111.8095238095239 285.08335367838527) rotate(0 204.5 89)">
        <path d="M-0.7 -0.89 C149.39 -0.56, 299.21 0.55, 409.11 0.43 M-0.54 0.5 C86.48 0.2, 172.72 0.59, 408.9 0.23 M408.61 -1.76 C411.58 51.32, 408.12 100.25, 407.79 177.83 M409.73 0.26 C406.65 54.29, 407.42 108.76, 409.38 178.3 M409 178.27 C268.32 179.65, 127.98 179.61, -0.92 178.33 M408.46 178.07 C292.28 176.67, 174.67 176.69, 0.46 178.54 M1.58 178.54 C1.12 122.23, 2.22 64.3, 1.92 0.77 M-0.48 178.16 C-0.77 134.07, -0.42 91.61, -0.15 -0.32"
              stroke="#000000" stroke-width="1" fill="none"/>
    </g>
    <g stroke-linecap="round" transform="translate(1153.8095238095239 305.08335367838527) rotate(0 76.5 29.5)">
        <path d="M-0.07 -0.9 C46.97 2.36, 92.84 2.02, 151.23 1.29 M0 -0.95 C40.55 -1.65, 81.8 -0.99, 152.78 0.49 M154.71 1.87 C151.13 18.82, 151.67 34.76, 153.16 57.39 M152.08 -0.55 C153.28 13.9, 153.81 29.95, 153.43 58.79 M152.01 58.58 C93.01 58.9, 34.09 59.97, -0.27 59.16 M153.96 58.35 C113.98 58.57, 75.15 60.17, 0.19 58.81 M0.78 59.97 C1.42 36.58, 1.46 15.4, -1.1 -0.01 M-0.77 58.66 C-0.14 40.85, 0.14 20.81, 0.91 0.85"
              stroke="#000000" stroke-width="1" fill="none"/>
    </g>
    <g transform="translate(1156.8095238095239 322.08335367838527) rotate(0 73 12.5)">
        <text x="73" y="18" font-family="Virgil, Segoe UI Emoji" font-size="20px" fill="#000000" text-anchor="middle"
              style="white-space: pre;">Apache Plasma
        </text>
    </g>
    <g transform="translate(1360.8095238095239 319.08335367838527) rotate(0 43.5 12.5)">
        <text x="0" y="18" font-family="Virgil, Segoe UI Emoji" font-size="20px" fill="#000000"
              style="white-space: pre;">Infinileap
        </text>
    </g>
    <g stroke-linecap="round" transform="translate(1354.8095238095239 310.08335367838527) rotate(0 50 21)">
        <path d="M1.12 0.2 C30.43 -2.1, 60.59 -0.97, 98.04 1.83 M-0.25 -0.18 C30.42 0.22, 60.5 0.4, 99.81 -0.88 M101.36 -1.21 C100.23 16.35, 98.79 31.4, 101.46 42.52 M99.08 0.38 C100.08 9.15, 99.56 18.29, 100 42.25 M99.52 40.34 C75.53 41.05, 50.04 40.46, -1.95 42.24 M99.39 42.83 C61.36 42.51, 20.57 43.08, 0.79 42.27 M-0.23 43.92 C0.57 26.66, -0.21 13.95, -0.97 0.33 M0.78 41.85 C-0.18 33.56, 0.99 23.11, -0.52 0.55"
              stroke="#000000" stroke-width="1" fill="none"/>
    </g>
    <g stroke-linecap="round" transform="translate(149.80952380952385 288.08335367838527) rotate(0 204.5 89)">
        <path d="M-0.78 0.62 C90.57 -0.85, 182.69 -0.02, 409.27 -0.61 M0.02 -0.37 C106.83 0.57, 214.97 1.13, 409.29 -0.49 M407.44 0.44 C410.19 62.77, 411.22 125.04, 410.68 177.18 M408.26 -0.19 C408.76 51.95, 409.8 106.59, 408.14 178.65 M409.46 176.99 C297.2 178.31, 185.19 178.78, 0.44 178.93 M409.03 177.69 C313.9 177.04, 219.37 177.29, 0.31 178.53 M-0.95 177.04 C-0.54 119.9, 2.46 63.37, -0.12 0.1 M0.88 177.05 C-0.62 111.45, 0.76 46.65, -0.34 0.12"
              stroke="#000000" stroke-width="1" fill="none"/>
    </g>
    <g transform="translate(242.80952380952385 416.08335367838527) rotate(0 93 12.5)">
        <text x="0" y="18" font-family="Virgil, Segoe UI Emoji" font-size="20px" fill="#000000"
              style="white-space: pre;">InfinimumDB-Server
        </text>
    </g>
    <g stroke-linecap="round" transform="translate(191.80952380952385 308.08335367838527) rotate(0 76.5 29.5)">
        <path d="M-0.76 -1.63 C46.9 -0.97, 91.69 -1.95, 152.24 -0.88 M-0.75 -0.24 C41.99 1.79, 82.76 0.12, 153.52 0.74 M152.86 0.11 C153.44 20.49, 154.22 40.71, 152.94 58.97 M152.79 -0.92 C153.39 17.5, 151.7 33.97, 152.74 59.77 M153.31 57.34 C99.04 56.8, 45.4 59.28, -1.36 58.41 M152.46 58.29 C110.86 57.87, 69.43 59.09, 0.26 58.31 M-1.77 59.01 C1.51 40.51, 0.16 18.94, 1.37 -0.29 M-0.88 58.05 C-0.02 38.64, -0.86 18.7, 0.56 0.09"
              stroke="#000000" stroke-width="1" fill="none"/>
    </g>
    <g transform="translate(194.80952380952385 325.08335367838527) rotate(0 73 12.5)">
        <text x="73" y="18" font-family="Virgil, Segoe UI Emoji" font-size="20px" fill="#000000" text-anchor="middle"
              style="white-space: pre;">Apache Plasma
        </text>
    </g>
    <g transform="translate(398.80952380952385 322.08335367838527) rotate(0 43.5 12.5)">
        <text x="0" y="18" font-family="Virgil, Segoe UI Emoji" font-size="20px" fill="#000000"
              style="white-space: pre;">Infinileap
        </text>
    </g>
    <g stroke-linecap="round" transform="translate(392.80952380952385 313.08335367838527) rotate(0 50 21)">
        <path d="M-0.12 0.49 C25.11 -1.41, 51.55 -1.28, 100.08 -1.33 M0.77 0.52 C21.65 -0.35, 45.84 -0.35, 99.22 0.22 M99.72 1.68 C99.21 12.25, 99.99 24.27, 98.51 41.62 M100.84 -0.86 C100.26 11.46, 100.38 23.99, 100.42 41.08 M99.2 42.8 C70.16 40.75, 36.36 41.62, 0.1 40.87 M99.73 42.56 C76.41 42.19, 50.2 42.33, -0.47 41.52 M1.59 41.88 C0.1 34.49, -0.29 25.1, 1.77 -1.91 M-0.15 41.66 C0.52 33.67, 0.49 23.43, -0.17 0.37"
              stroke="#000000" stroke-width="1" fill="none"/>
    </g>
    <g stroke-linecap="round">
        <g transform="translate(565.3095238095239 339.08335367838527) rotate(0 29.928706871895145 -0.8559579951521386)">
            <path d="M-0.17 -0.16 C9.63 -0.28, 49.03 0.21, 59.25 -0.06 M-1.71 -1.29 C8.43 -1.8, 51.12 -1.76, 61.57 -1.69"
                  stroke="#000000" stroke-width="1" fill="none"/>
        </g>
        <g transform="translate(565.3095238095239 339.08335367838527) rotate(0 29.928706871895145 -0.8559579951521386)">
            <path d="M33.09 7.25 C44.4 7.03, 51.08 2.34, 60.66 -3.27 M33.43 9 C41.84 4.52, 50.67 2.3, 61.91 -1.08"
                  stroke="#000000" stroke-width="1" fill="none"/>
        </g>
        <g transform="translate(565.3095238095239 339.08335367838527) rotate(0 29.928706871895145 -0.8559579951521386)">
            <path d="M33.14 -13.27 C44.55 -6.56, 51.22 -4.32, 60.66 -3.27 M33.49 -11.52 C41.79 -10.05, 50.6 -6.31, 61.91 -1.08"
                  stroke="#000000" stroke-width="1" fill="none"/>
        </g>
    </g>
    <g stroke-linecap="round">
        <g transform="translate(620.3095238095239 395.08335367838527) rotate(0 -26.52774407324381 -0.9151919460617748)">
            <path d="M-0.69 -0.38 C-9.72 -0.67, -44.99 -1.32, -53.86 -1.48 M1.16 -1.63 C-7.97 -1.78, -45 -0.42, -54.21 -0.2"
                  stroke="#000000" stroke-width="1" fill="none"/>
        </g>
        <g transform="translate(620.3095238095239 395.08335367838527) rotate(0 -26.52774407324381 -0.9151919460617748)">
            <path d="M-29.31 -8.49 C-37.9 -5.32, -46.19 -2.4, -54.33 -1.72 M-28.21 -9.83 C-34.76 -8.43, -40.21 -4.56, -54.41 -1"
                  stroke="#000000" stroke-width="1" fill="none"/>
        </g>
        <g transform="translate(620.3095238095239 395.08335367838527) rotate(0 -26.52774407324381 -0.9151919460617748)">
            <path d="M-28.73 10.31 C-37.55 7.26, -46.03 3.96, -54.33 -1.72 M-27.63 8.98 C-34.21 5.96, -39.8 5.43, -54.41 -1"
                  stroke="#000000" stroke-width="1" fill="none"/>
        </g>
    </g>
    <g stroke-linecap="round">
        <g transform="translate(1048.3095238095239 323.08335367838527) rotate(0 26.812303806096338 -0.5979098129090303)">
            <path d="M-1.14 -0.07 C8.01 -0.47, 45.51 -1.25, 54.77 -1.3 M0.46 -1.15 C9.44 -0.87, 44.89 0.29, 53.7 0.08"
                  stroke="#000000" stroke-width="1" fill="none"/>
        </g>
        <g transform="translate(1048.3095238095239 323.08335367838527) rotate(0 26.812303806096338 -0.5979098129090303)">
            <path d="M27.66 8.87 C34.69 5.8, 43.73 4.79, 51.79 -0.4 M28.34 8.97 C34.06 7.68, 41.07 4.26, 54.19 -0.35"
                  stroke="#000000" stroke-width="1" fill="none"/>
        </g>
        <g transform="translate(1048.3095238095239 323.08335367838527) rotate(0 26.812303806096338 -0.5979098129090303)">
            <path d="M27.82 -9.94 C34.99 -7.56, 43.98 -3.12, 51.79 -0.4 M28.5 -9.84 C34.35 -6.42, 41.31 -5.14, 54.19 -0.35"
                  stroke="#000000" stroke-width="1" fill="none"/>
        </g>
    </g>
    <g stroke-linecap="round">
        <g transform="translate(1106.3095238095239 391.08335367838527) rotate(0 -30.653749268129445 -0.3151378479631646)">
            <path d="M0.01 0.3 C-10.25 0.47, -51.28 0.74, -61.32 0.68 M-1.44 -0.59 C-11.32 -0.77, -49.06 -1.54, -58.96 -1.27"
                  stroke="#000000" stroke-width="1" fill="none"/>
        </g>
        <g transform="translate(1106.3095238095239 391.08335367838527) rotate(0 -30.653749268129445 -0.3151378479631646)">
            <path d="M-30.27 -12.64 C-39.27 -7.59, -49.52 -3.14, -60.13 -0.88 M-30.37 -12.09 C-40.74 -7.28, -50.81 -3.41, -59.94 -0.45"
                  stroke="#000000" stroke-width="1" fill="none"/>
        </g>
        <g transform="translate(1106.3095238095239 391.08335367838527) rotate(0 -30.653749268129445 -0.3151378479631646)">
            <path d="M-30.26 7.88 C-39.2 6.38, -49.46 4.27, -60.13 -0.88 M-30.37 8.44 C-40.78 6.09, -50.85 2.82, -59.94 -0.45"
                  stroke="#000000" stroke-width="1" fill="none"/>
        </g>
    </g>
    <g stroke-linecap="round" transform="translate(721.3095238095239 564.0833536783853) rotate(0 123.5 20)">
        <path d="M-0.95 -1.22 C54.76 -1.53, 109.49 0.79, 247.13 -0.4 M-0.76 -0.59 C75.03 -1.92, 150.51 -0.89, 246.28 0.46 M248.51 1.96 C245.1 9.31, 245.95 20.05, 248.37 38.13 M246.13 0.68 C247.23 10.21, 248.15 17.75, 247.52 40.14 M246.72 41.6 C160.11 40.1, 71.18 40.6, 0.29 40.4 M247.03 39.77 C179.42 38.81, 111.12 37.98, 0.34 39.83 M1.78 39.9 C1.09 29.99, 1.09 18.45, 1.52 1.41 M0.04 40.13 C-0.26 26.8, 0.42 13.94, 0.78 0.31"
              stroke="#000000" stroke-width="1" fill="none"/>
    </g>
    <g transform="translate(776.3095238095239 572.0833536783853) rotate(0 71.5 12.5)">
        <text x="0" y="18" font-family="Virgil, Segoe UI Emoji" font-size="20px" fill="#000000"
              style="white-space: pre;">Load Balancer
        </text>
    </g>
    <g stroke-linecap="round">
        <g transform="translate(840.3095238095239 561.0833536783853) rotate(0 0.023094584969783227 -45.67128892260604)">
            <path d="M0.15 -0.88 C-0.11 -16, -1.11 -75.7, -0.94 -91.01 M-1.23 1.27 C-1.18 -14.14, 0.91 -77.1, 1.27 -92.61"
                  stroke="#000000" stroke-width="1" fill="none"/>
        </g>
    </g>
    <g stroke-linecap="round">
        <g transform="translate(839.3095238095239 504.08335367838527) rotate(0 253.80738109366501 -0.3961271341424464)">
            <path d="M-0.52 -0.25 C83.78 -0.51, 421.37 -0.73, 505.97 -0.59 M1.4 -1.43 C86.06 -1.62, 423.99 0.64, 508.14 0.64"
                  stroke="#000000" stroke-width="1" fill="none"/>
        </g>
    </g>
    <g stroke-linecap="round">
        <g transform="translate(1345.3095238095239 504.08335367838527) rotate(0 0.05283043474457827 -21.41913317644503)">
            <path d="M-0.8 0.65 C-0.89 -6.36, -1.25 -34.4, -1.08 -41.58 M0.99 -0.06 C1.3 -7.47, 1.3 -36.6, 1.06 -43.49"
                  stroke="#000000" stroke-width="1" fill="none"/>
        </g>
    </g>
    <g stroke-linecap="round">
        <g transform="translate(838.3095238095239 502.08335367838527) rotate(0 -266.8842462577019 -0.4745810534835968)">
            <path d="M-0.59 -0.38 C-89.79 -0.39, -445.09 0.89, -534.08 0.79 M1.29 -1.62 C-88.16 -2.05, -445.59 -1.17, -535.06 -0.92"
                  stroke="#000000" stroke-width="1" fill="none"/>
        </g>
    </g>
    <g stroke-linecap="round">
        <g transform="translate(307.30952380952385 501.08335367838527) rotate(0 -0.1905022176181035 -16.63494576788507)">
            <path d="M-0.9 0.83 C-1.24 -4.51, -1.48 -26.92, -1.17 -32.52 M0.82 0.22 C0.75 -5.39, 0.95 -28.29, 0.93 -34.1"
                  stroke="#000000" stroke-width="1" fill="none"/>
        </g>
    </g>
    <g transform="translate(810.8095238095239 840.2500101725259) rotate(0 26 12.5)">
        <text x="0" y="18" font-family="Virgil, Segoe UI Emoji" font-size="20px" fill="#000000"
              style="white-space: pre;">Redis
        </text>
    </g>
    <g stroke-linecap="round" transform="translate(804.8095238095239 831.2500101725259) rotate(0 50 21)">
        <path d="M-1.07 -1.97 C33.2 -0.7, 64.18 -0.84, 98.31 0.78 M-0.21 0.69 C35.9 -1.18, 74.15 -0.79, 99.37 0.88 M101.65 -1.96 C98.65 15.08, 100.44 26.5, 101.18 42.91 M99.39 0.29 C101.14 15.52, 100.76 30.3, 100.04 41.28 M99.6 43.34 C68.27 43.51, 39.67 42.57, 0.69 40.01 M99.24 41.39 C71.43 42.43, 42.83 41.26, 0.66 42.18 M1.53 42.62 C0.57 26.77, -1.37 15.29, 0.64 -0.71 M-0.78 42.26 C0.31 27.65, -0.53 14.3, 0.66 0.99"
              stroke="#000000" stroke-width="1" fill="none"/>
    </g>
    <g transform="translate(995.8095238095239 575.2500101725259) rotate(0 78.5 25)">
        <text x="0" y="18" font-family="Virgil, Segoe UI Emoji" font-size="20px" fill="#000000"
              style="white-space: pre;">Hashing Funktion
        </text>
        <text x="0" y="43" font-family="Virgil, Segoe UI Emoji" font-size="20px" fill="#000000"
              style="white-space: pre;"/>
    </g>
    <g stroke-linecap="round" transform="translate(10.000000000000114 10) rotate(0 815 484.1666666666667)">
        <path d="M659.39 8.45 C694.76 -3.57, 741.27 2.12, 781.72 1.15 C822.16 0.18, 861.8 0.31, 902.04 2.62 C942.28 4.93, 983.75 8.75, 1023.14 14.99 C1062.52 21.23, 1101.17 30.27, 1138.37 40.06 C1175.56 49.86, 1212.14 61.01, 1246.31 73.78 C1280.48 86.54, 1312.69 101.24, 1343.37 116.64 C1374.05 132.04, 1403.75 148.06, 1430.4 166.2 C1457.06 184.34, 1481.77 204.94, 1503.32 225.49 C1524.87 246.04, 1543.35 267.48, 1559.69 289.5 C1576.04 311.52, 1590.48 334.52, 1601.37 357.63 C1612.26 380.75, 1620.46 404.32, 1625.04 428.18 C1629.62 452.05, 1630.2 476.67, 1628.84 500.81 C1627.48 524.94, 1624.05 549.37, 1616.91 573 C1609.77 596.62, 1599.14 620.04, 1585.97 642.54 C1572.8 665.05, 1556.84 686.9, 1537.88 708.02 C1518.91 729.15, 1496.04 749.64, 1472.15 769.27 C1448.27 788.9, 1422.99 808.47, 1394.56 825.83 C1366.13 843.19, 1334.18 859.33, 1301.58 873.45 C1268.99 887.57, 1234.87 899.34, 1199 910.53 C1163.13 921.72, 1124.61 932.56, 1086.36 940.59 C1048.11 948.62, 1009.06 954.14, 969.52 958.71 C929.99 963.28, 889.54 966.79, 849.15 968.02 C808.77 969.26, 767.49 968.87, 727.21 966.11 C686.94 963.36, 646.68 957.84, 607.49 951.49 C568.3 945.14, 529.35 937.38, 492.08 928.02 C454.81 918.66, 418.38 907.79, 383.89 895.33 C349.41 882.87, 315.82 868.78, 285.17 853.28 C254.51 837.78, 226.38 820.55, 199.96 802.34 C173.55 784.14, 148.58 764.54, 126.69 744.05 C104.8 723.55, 85 701.52, 68.61 679.37 C52.23 657.22, 39.06 634.3, 28.4 611.16 C17.73 588.02, 9.3 564.51, 4.62 540.53 C-0.06 516.55, -1.17 491.32, 0.33 467.28 C1.82 443.23, 6.3 419.84, 13.59 396.27 C20.87 372.7, 30.72 348.52, 44.03 325.86 C57.34 303.19, 74.73 281.57, 93.45 260.26 C112.17 238.95, 132.49 217.67, 156.34 198 C180.19 178.34, 207.96 159.38, 236.53 142.27 C265.09 125.16, 295.12 109.56, 327.73 95.35 C360.34 81.15, 396.26 68.43, 432.18 57.05 C468.09 45.67, 502.43 35.31, 543.2 27.07 C583.98 18.83, 651.2 9.55, 676.83 7.63 C702.47 5.71, 694.69 7.54, 697.03 15.55 M1106.98 33.43 C1148.06 34.34, 1183.3 52.31, 1218.68 63.91 C1254.05 75.51, 1287.58 88.41, 1319.24 103.03 C1350.9 117.66, 1381.15 134, 1408.64 151.65 C1436.13 169.29, 1461.09 189.15, 1484.17 208.89 C1507.26 228.62, 1529.25 248.28, 1547.16 270.04 C1565.08 291.79, 1579.5 316.55, 1591.65 339.42 C1603.8 362.28, 1613.86 383.72, 1620.08 407.23 C1626.31 430.73, 1628.73 456.04, 1629 480.45 C1629.26 504.87, 1627.04 530.11, 1621.68 553.74 C1616.32 577.37, 1608.42 599.28, 1596.85 622.26 C1585.28 645.23, 1569.84 669.53, 1552.27 691.6 C1534.71 713.66, 1514.29 734.83, 1491.45 754.64 C1468.6 774.44, 1442.39 792.53, 1415.21 810.43 C1388.03 828.34, 1359.52 846.72, 1328.37 862.08 C1297.22 877.44, 1263.44 890.65, 1228.33 902.6 C1193.22 914.55, 1155.44 925.04, 1117.7 933.79 C1079.96 942.54, 1041.39 949.48, 1001.9 955.1 C962.41 960.72, 920.89 965.3, 880.76 967.5 C840.62 969.7, 801.33 969.89, 761.11 968.32 C720.88 966.75, 679.04 963.58, 639.4 958.1 C599.76 952.62, 561.31 944.49, 523.28 935.44 C485.25 926.4, 446.58 915.83, 411.2 903.85 C375.82 891.86, 342.45 878.3, 311 863.54 C279.55 848.79, 250.32 832.85, 222.52 815.32 C194.72 797.78, 167.5 778.06, 144.19 758.34 C120.89 738.62, 100.31 718.43, 82.69 696.98 C65.07 675.53, 50.68 652.71, 38.49 629.63 C26.3 606.55, 15.82 582.21, 9.55 558.51 C3.29 534.82, 1.28 511.59, 0.91 487.48 C0.54 463.37, 1.65 437.73, 7.33 413.85 C13.01 389.96, 23.2 366.97, 34.99 344.18 C46.78 321.38, 60.99 298.94, 78.07 277.09 C95.16 255.25, 115.09 232.89, 137.51 213.1 C159.93 193.32, 185.24 175.97, 212.61 158.39 C239.99 140.81, 270.02 123.06, 301.77 107.63 C333.53 92.2, 368.05 78.08, 403.16 65.82 C438.26 53.56, 474.71 42.8, 512.4 34.07 C550.1 25.35, 589.79 18.67, 629.33 13.47 C668.87 8.27, 709.25 5.15, 749.64 2.86 C790.03 0.56, 831.44 -1.47, 871.67 -0.29 C911.9 0.89, 951.74 4.26, 991.03 9.93 C1030.32 15.61, 1089.2 28.47, 1107.41 33.75 C1125.62 39.03, 1105.19 34.49, 1100.28 41.61"
              stroke="#000000" stroke-width="1" fill="none"/>
    </g>
    <g transform="translate(745.7182539682534 415.3629352079672) rotate(0 93 12.5)">
        <text x="0" y="18" font-family="Virgil, Segoe UI Emoji" font-size="20px" fill="#000000"
              style="white-space: pre;">InfinimumDB-Server
        </text>
    </g>
    <g transform="translate(1234.0515873015866 403.6962685413005) rotate(0 93 12.5)">
        <text x="0" y="18" font-family="Virgil, Segoe UI Emoji" font-size="20px" fill="#000000"
              style="white-space: pre;">InfinimumDB-Server
        </text>
    </g>
    <g transform="translate(759.8849206349198 892.8629352079671) rotate(0 89 12.5)">
        <text x="0" y="18" font-family="Virgil, Segoe UI Emoji" font-size="20px" fill="#000000"
              style="white-space: pre;">InfinimumDB-Client
        </text>
    </g>
</svg>