<svg version="1.1" xmlns="http://www.w3.org/2000/svg" viewBox="0 0 1583 2020.0657079483353" width="1583" height="2020.0657079483353">
  <!-- svg-source:excalidraw -->
  
  <defs>
    <style>
      @font-face {
        font-family: "Virgil";
        src: url("https://excalidraw.com/Virgil.woff2");
      }
      @font-face {
        font-family: "Cascadia";
        src: url("https://excalidraw.com/Cascadia.woff2");
      }
    </style>
  </defs>
  <rect x="0" y="0" width="1583" height="2020.0657079483353" fill="#ffffff"></rect><g stroke-linecap="round" transform="translate(907.8016047250203 10) rotate(0 156.5 96)"><path d="M1.18 -0.7 C77.71 -2.64, 154.36 -2.29, 313.65 1.12 M-0.18 -0.12 C69.03 0.53, 137.79 1.18, 312.4 0.06 M311.68 1.22 C312.58 43.33, 313.51 86.46, 314.53 192.53 M313.65 0.01 C314.52 69.69, 313.77 140.24, 312.33 191.06 M312.51 191.52 C215.07 189.49, 120.55 189.96, -0.31 192.22 M313.4 191.61 C219.17 191.29, 126.69 191.2, -0.56 192.61 M-1.88 193.1 C-1.07 118.63, 1.17 44.18, -0.65 1.13 M0.02 192.81 C-1.54 121.33, -1.72 50.3, 0.4 -0.77" stroke="#000000" stroke-width="1" fill="none"></path></g><g transform="translate(939.8016047250203 37) rotate(0 130.5 31)"><text x="0" y="44" font-family="Virgil, Segoe UI Emoji" font-size="49.18918918918921px" fill="#000000" text-anchor="start" style="white-space: pre;" direction="ltr">Server-Put</text></g><g transform="translate(935.8016047250203 115) rotate(0 71.5 25)"><text x="0" y="18" font-family="Virgil, Segoe UI Emoji" font-size="20px" fill="#000000" text-anchor="start" style="white-space: pre;" direction="ltr">given:</text><text x="0" y="43" font-family="Virgil, Segoe UI Emoji" font-size="20px" fill="#000000" text-anchor="start" style="white-space: pre;" direction="ltr">- Java Object</text></g><g transform="translate(1081.8016047250203 252) rotate(0 122.5 12.5)"><text x="0" y="18" font-family="Virgil, Segoe UI Emoji" font-size="20px" fill="#000000" text-anchor="start" style="white-space: pre;" direction="ltr">gotten through Infinileap</text></g><g stroke-linecap="round" transform="translate(886.8016047250203 648.6666666666667) rotate(0 178 105.40552995391704)"><path d="M176.29 -1.72 C228.25 28.08, 279.66 60.29, 355.74 105.39 M178.32 0.23 C221.79 25.88, 266.71 52.44, 355.26 106.24 M356.16 106.09 C298.43 138.09, 245.34 172.82, 176.81 210.24 M356.28 105.89 C314.64 129.93, 271.45 154.38, 177.44 209.98 M179.51 211.93 C123.1 175.26, 63.59 142.68, -0.79 105.97 M177.33 210.54 C106.07 169.04, 34.46 127.85, 0.43 105.2 M0.77 106.58 C59.26 71.29, 117.77 34.22, 177.5 0.37 M-0.56 105.89 C59.15 72.74, 115.87 37.01, 178.42 -0.54" stroke="#000000" stroke-width="1" fill="none"></path></g><g transform="translate(964.8016047250203 715.6666666666667) rotate(0 102.5 37)"><text x="0" y="26" font-family="Virgil, Segoe UI Emoji" font-size="29.60000000000002px" fill="#000000" text-anchor="start" style="white-space: pre;" direction="ltr">Is this server</text><text x="0" y="63" font-family="Virgil, Segoe UI Emoji" font-size="29.60000000000002px" fill="#000000" text-anchor="start" style="white-space: pre;" direction="ltr"> responsible?</text></g><g stroke-linecap="round"><g transform="translate(884.8016047250203 752.6666666666667) rotate(0 -66.01829334050416 -0.5232555420612925)"><path d="M-0.91 0.41 C-22.92 0.59, -110.99 0.5, -132.85 0.39 M0.82 -0.43 C-20.74 -0.55, -108.3 -1.76, -130.59 -1.53" stroke="#000000" stroke-width="1" fill="none"></path></g><g transform="translate(884.8016047250203 752.6666666666667) rotate(0 -66.01829334050416 -0.5232555420612925)"><path d="M-101.69 -13.12 C-108.36 -9.72, -115.98 -8.51, -130.19 -0.95 M-102.74 -12.58 C-112.31 -8.72, -122.91 -3.87, -130.46 -2.43" stroke="#000000" stroke-width="1" fill="none"></path></g><g transform="translate(884.8016047250203 752.6666666666667) rotate(0 -66.01829334050416 -0.5232555420612925)"><path d="M-101.75 7.4 C-108.29 6.01, -115.89 2.44, -130.19 -0.95 M-102.81 7.94 C-112.3 4.23, -122.88 1.51, -130.46 -2.43" stroke="#000000" stroke-width="1" fill="none"></path></g></g><g transform="translate(810.8016047250203 713.6666666666667) rotate(0 18.5 18.5)"><text x="0" y="26.000000000000014" font-family="Virgil, Segoe UI Emoji" font-size="29.599999999999998px" fill="#000000" text-anchor="start" style="white-space: pre;" direction="ltr">No</text></g><g stroke-linecap="round" transform="translate(537.8016047250203 686.6666666666667) rotate(0 104.5 66)"><path d="M139.46 3.49 C152.67 5.32, 167.36 11.67, 177.54 17.87 C187.72 24.07, 195.31 32.38, 200.55 40.67 C205.8 48.95, 209.32 58.49, 209.02 67.57 C208.72 76.65, 205.12 87.01, 198.75 95.14 C192.39 103.27, 181.61 110.69, 170.83 116.33 C160.06 121.97, 147.55 126.51, 134.1 129 C120.64 131.49, 104.33 132.5, 90.11 131.29 C75.9 130.07, 61 126.59, 48.81 121.69 C36.62 116.79, 24.81 109.15, 16.97 101.88 C9.13 94.62, 4 86.86, 1.78 78.1 C-0.43 69.34, 0.2 57.97, 3.69 49.32 C7.17 40.68, 13.94 33.27, 22.69 26.22 C31.43 19.18, 43.57 11.32, 56.16 7.06 C68.75 2.81, 82.39 0.6, 98.23 0.68 C114.07 0.77, 141.07 5.7, 151.21 7.58 C161.35 9.46, 159.93 10.94, 159.07 11.97 M130.32 2.5 C143.76 3.8, 160.27 9.68, 171.55 15.46 C182.82 21.24, 191.92 29.41, 197.97 37.19 C204.01 44.98, 207.07 53.37, 207.84 62.18 C208.61 70.98, 207.61 81.4, 202.59 90.02 C197.57 98.65, 187.88 107.49, 177.74 113.92 C167.61 120.35, 154.74 125.8, 141.78 128.61 C128.82 131.42, 114.04 131.6, 100 130.77 C85.95 129.94, 70.26 127.46, 57.52 123.61 C44.79 119.77, 32.78 114.65, 23.59 107.69 C14.4 100.73, 6.22 90.74, 2.38 81.86 C-1.46 72.99, -1.68 63.31, 0.55 54.43 C2.79 45.55, 7.84 35.94, 15.79 28.59 C23.74 21.23, 36.36 15.11, 48.25 10.29 C60.15 5.46, 73.17 1.01, 87.19 -0.38 C101.2 -1.77, 125.19 1.46, 132.35 1.94 C139.51 2.42, 130.72 1.18, 130.14 2.49" stroke="#000000" stroke-width="1" fill="none"></path></g><g transform="translate(544.4916047250202 724.939393939394) rotate(0 93.5 26)"><text x="93.5" y="18" font-family="Virgil, Segoe UI Emoji" font-size="20.39999999999999px" fill="#000000" text-anchor="middle" style="white-space: pre;" direction="ltr">Send object to</text><text x="93.5" y="44" font-family="Virgil, Segoe UI Emoji" font-size="20.39999999999999px" fill="#000000" text-anchor="middle" style="white-space: pre;" direction="ltr"> responsible server</text></g><g stroke-linecap="round"><g transform="translate(540.686216752576 748.7631213881943) rotate(0 -82.03179259065872 0.3452105753914907)"><path d="M-0.06 -0.95 C-27.09 -1.05, -135.73 0.03, -163 0.51 M-1.55 1.17 C-28.68 1.69, -137.39 1.74, -164.01 1.5" stroke="#000000" stroke-width="1" fill="none"></path></g><g transform="translate(540.686216752576 748.7631213881943) rotate(0 -82.03179259065872 0.3452105753914907)"><path d="M-137.36 -8.85 C-143.99 -7.65, -148.26 -4.88, -163.98 3.13 M-135.44 -9.53 C-144.75 -4.51, -153.35 -1.39, -163.63 2.48" stroke="#000000" stroke-width="1" fill="none"></path></g><g transform="translate(540.686216752576 748.7631213881943) rotate(0 -82.03179259065872 0.3452105753914907)"><path d="M-137.43 11.67 C-144.23 8.09, -148.49 6.09, -163.98 3.13 M-135.51 11 C-144.64 9.48, -153.22 6.07, -163.63 2.48" stroke="#000000" stroke-width="1" fill="none"></path></g></g><g stroke-linecap="round" transform="translate(322.8016047250203 732.6666666666667) rotate(0 20 19)"><path d="M13.8 0.93 C17.63 -0.38, 24.88 0.03, 28.89 1.51 C32.89 2.98, 36.08 6.03, 37.85 9.78 C39.62 13.54, 40.64 20.04, 39.51 24.03 C38.39 28.01, 34.47 31.37, 31.12 33.72 C27.78 36.06, 23.49 38.18, 19.42 38.1 C15.36 38.02, 9.83 36.17, 6.74 33.24 C3.65 30.31, 1.31 24.7, 0.89 20.52 C0.48 16.34, 0.96 11.64, 4.24 8.18 C7.52 4.72, 17.01 0.96, 20.58 -0.24 C24.15 -1.43, 25.9 0.8, 25.68 1 M30.22 1.23 C33.93 2.43, 37.71 7.04, 39.19 10.82 C40.66 14.59, 40.26 19.67, 39.07 23.88 C37.89 28.08, 35.64 33.57, 32.05 36.06 C28.46 38.55, 21.79 39.52, 17.51 38.82 C13.23 38.12, 9.33 34.93, 6.36 31.89 C3.39 28.84, -0.1 24.77, -0.29 20.57 C-0.48 16.37, 2.76 10.02, 5.24 6.69 C7.72 3.36, 10.58 1.44, 14.6 0.61 C18.62 -0.22, 26.88 1.41, 29.35 1.7 C31.82 1.99, 29.49 2.27, 29.44 2.35" stroke="none" stroke-width="0" fill="#000"></path><path d="M26.98 1.05 C30.86 2.27, 34.2 6.72, 36.48 10.47 C38.75 14.22, 41.43 19.56, 40.63 23.55 C39.83 27.53, 35.32 31.85, 31.69 34.38 C28.05 36.91, 22.87 38.76, 18.81 38.72 C14.74 38.68, 10.5 36.97, 7.29 34.14 C4.07 31.31, 0.24 25.96, -0.48 21.73 C-1.2 17.49, 0.81 12.21, 2.98 8.72 C5.16 5.23, 8.03 1.92, 12.55 0.78 C17.08 -0.35, 27.03 1.3, 30.13 1.92 C33.24 2.54, 31.39 4.16, 31.2 4.5 M15.06 -0.31 C19.02 -1.22, 24.89 0.45, 28.79 2.3 C32.68 4.16, 36.73 7.04, 38.44 10.83 C40.15 14.62, 40.21 21.05, 39.04 25.05 C37.88 29.06, 35.02 32.49, 31.46 34.86 C27.89 37.23, 22.14 39.52, 17.67 39.28 C13.2 39.04, 7.67 36.75, 4.62 33.43 C1.57 30.12, -0.36 23.7, -0.64 19.4 C-0.92 15.11, 0.12 10.79, 2.94 7.66 C5.76 4.53, 14.26 1.79, 16.28 0.61 C18.3 -0.56, 15.07 0.28, 15.05 0.6" stroke="#000000" stroke-width="1" fill="none"></path></g><g stroke-linecap="round" transform="translate(302.8016047250203 716.6666666666667) rotate(0 37 35)"><path d="M26.22 1.52 C32.69 -0.72, 43.61 -0.18, 50.51 2 C57.41 4.19, 63.69 8.82, 67.62 14.62 C71.56 20.41, 74.46 29.86, 74.11 36.75 C73.75 43.65, 69.85 50.65, 65.48 56 C61.12 61.35, 54.69 66.78, 47.92 68.86 C41.14 70.94, 31.67 70.94, 24.85 68.47 C18.03 66, 11 59.88, 6.99 54.04 C2.98 48.21, 0.52 40.29, 0.78 33.46 C1.04 26.63, 2.61 18.63, 8.55 13.04 C14.48 7.45, 30.45 2, 36.38 -0.07 C42.31 -2.14, 44.02 -0.11, 44.13 0.61 M52.58 2.28 C58.87 4.48, 65.07 10.48, 68.78 16.69 C72.49 22.9, 75.57 32.47, 74.86 39.55 C74.15 46.62, 69.34 54.22, 64.51 59.13 C59.68 64.04, 53 67.59, 45.9 68.99 C38.8 70.39, 28.51 70.4, 21.93 67.53 C15.35 64.66, 10.18 57.74, 6.43 51.78 C2.68 45.81, -1.13 38.45, -0.58 31.74 C-0.04 25.03, 4.65 16.67, 9.69 11.52 C14.73 6.36, 22.48 2.52, 29.66 0.84 C36.84 -0.85, 48.96 1.01, 52.77 1.41 C56.58 1.8, 52.91 2.24, 52.52 3.23" stroke="#000000" stroke-width="1" fill="none"></path></g><g stroke-linecap="round"><g transform="translate(1061.8016047250203 855.6666666666667) rotate(0 -0.18992715865368837 67.0889640071988)"><path d="M0.82 0.96 C0.81 23.33, -0.15 111.77, -0.17 133.76 M-0.2 0.42 C-0.39 22.48, -1.29 109.75, -1.2 132.03" stroke="#000000" stroke-width="1" fill="none"></path></g><g transform="translate(1061.8016047250203 855.6666666666667) rotate(0 -0.18992715865368837 67.0889640071988)"><path d="M-9.74 103.52 C-7.21 113.19, -5.73 119.87, -0.63 133.77 M-11.07 103.6 C-8.67 110.39, -6.06 115.99, -0.49 131.82" stroke="#000000" stroke-width="1" fill="none"></path></g><g transform="translate(1061.8016047250203 855.6666666666667) rotate(0 -0.18992715865368837 67.0889640071988)"><path d="M10.78 103.6 C7.29 113.39, 2.74 120.05, -0.63 133.77 M9.45 103.68 C7.06 110.47, 4.87 116.05, -0.49 131.82" stroke="#000000" stroke-width="1" fill="none"></path></g></g><g transform="translate(1076.8016047250203 888.6666666666667) rotate(0 24.5 18.560606060606005)"><text x="0" y="26.121212121212118" font-family="Virgil, Segoe UI Emoji" font-size="29.696969696969695px" fill="#000000" text-anchor="start" style="white-space: pre;" direction="ltr">Yes</text></g><g stroke-linecap="round" transform="translate(938.8016047250203 994.6666666666667) rotate(0 130 82)"><path d="M134.32 0.87 C149.21 -0.12, 166.65 3.39, 180.9 7.19 C195.15 10.99, 208.73 17.05, 219.83 23.67 C230.93 30.29, 240.77 38.04, 247.51 46.91 C254.25 55.79, 259.25 67.02, 260.27 76.91 C261.29 86.81, 258.3 97.01, 253.62 106.29 C248.93 115.58, 241.72 124.72, 232.14 132.62 C222.56 140.53, 209.68 148.5, 196.15 153.73 C182.62 158.95, 166.48 162.7, 150.95 163.98 C135.42 165.26, 118.35 163.79, 102.95 161.41 C87.54 159.03, 71.69 155.11, 58.51 149.7 C45.32 144.29, 32.94 136.7, 23.83 128.95 C14.72 121.2, 7.76 112.54, 3.84 103.2 C-0.08 93.86, -1.58 82.74, 0.31 72.9 C2.2 63.06, 7.69 52.81, 15.17 44.15 C22.65 35.49, 33.4 27.56, 45.21 20.93 C57.02 14.3, 70.27 7.97, 86.03 4.38 C101.78 0.78, 129.89 -0.39, 139.73 -0.67 C149.58 -0.94, 145.18 1.23, 145.09 2.73 M118.48 0.5 C133.21 -1.63, 153.09 1.08, 168.17 3.85 C183.26 6.62, 196.6 11.3, 208.99 17.13 C221.38 22.95, 234.33 30.36, 242.51 38.8 C250.7 47.25, 255.66 57.77, 258.1 67.8 C260.53 77.84, 260.23 89.25, 257.12 99.02 C254.02 108.78, 247.96 118.3, 239.48 126.38 C230.99 134.47, 218.89 141.78, 206.21 147.52 C193.52 153.26, 178.55 158.09, 163.36 160.83 C148.18 163.56, 130.66 165.14, 115.1 163.93 C99.55 162.71, 83.55 158.26, 70.05 153.53 C56.55 148.79, 44.48 142.87, 34.11 135.52 C23.74 128.16, 13.45 118.48, 7.81 109.39 C2.17 100.31, 0.09 90.46, 0.28 81.01 C0.46 71.56, 3.31 61.73, 8.95 52.68 C14.59 43.64, 23.23 34.26, 34.11 26.72 C45 19.18, 59.91 12.1, 74.25 7.46 C88.59 2.82, 112.77 -0.27, 120.15 -1.1 C127.52 -1.94, 118.53 1, 118.48 2.45" stroke="#000000" stroke-width="1" fill="none"></path></g><g transform="translate(983.8016047250203 1043.6666666666667) rotate(0 84.48000000000002 32)"><text x="84.48000000000003" y="22.000000000000014" font-family="Virgil, Segoe UI Emoji" font-size="25.60000000000001px" fill="#000000" text-anchor="middle" style="white-space: pre;" direction="ltr">Safe object </text><text x="84.48000000000003" y="54.00000000000003" font-family="Virgil, Segoe UI Emoji" font-size="25.60000000000001px" fill="#000000" text-anchor="middle" style="white-space: pre;" direction="ltr">to PlasmaDB</text></g><g stroke-linecap="round" transform="translate(907.8016047250203 1272.6666666666667) rotate(0 149.5 112.5)"><path d="M149.72 -1.9 C190.68 33.15, 227.56 60.36, 297.2 111.32 M149.56 -0.48 C201.39 39.33, 253.8 79.65, 299.18 112.41 M298.11 113.53 C252.99 148.02, 209.29 182.88, 151.61 223.85 M298.72 112.28 C262.41 141.21, 223.2 168.6, 149.35 225.91 M148.44 224.38 C91.05 182.2, 35.15 138.36, -0.64 112.88 M150.03 224.83 C98.46 186.08, 45.6 146.9, -0.32 113.57 M0.49 112.91 C52.48 72.53, 101.51 34.53, 151.51 1.6 M0.5 112.44 C44.17 79.6, 89.75 45.51, 149.51 0.49" stroke="#000000" stroke-width="1" fill="none"></path></g><g transform="translate(931.3016047250203 1375.6666666666667) rotate(0 121.5 12.5)"><text x="121.5" y="18" font-family="Virgil, Segoe UI Emoji" font-size="20px" fill="#000000" text-anchor="middle" style="white-space: pre;" direction="ltr">Is PlasmaDB reachable?</text></g><g stroke-linecap="round"><g transform="translate(1058.8016047250203 1160.6666666666667) rotate(0 -0.9848425072431723 54.998028564974675)"><path d="M-0.12 -0.26 C-0.2 18.24, -0.21 91.4, -0.34 109.94 M-1.64 -1.45 C-1.92 17.35, -1.99 93.01, -1.47 111.44" stroke="#000000" stroke-width="1" fill="none"></path></g><g transform="translate(1058.8016047250203 1160.6666666666667) rotate(0 -0.9848425072431723 54.998028564974675)"><path d="M-12.48 82.79 C-9.11 90.56, -4.05 101.52, -3.05 111.2 M-12.28 82.91 C-7.87 92.94, -4.61 101.87, -0.63 112.44" stroke="#000000" stroke-width="1" fill="none"></path></g><g transform="translate(1058.8016047250203 1160.6666666666667) rotate(0 -0.9848425072431723 54.998028564974675)"><path d="M8.04 82.57 C5.02 90.39, 3.69 101.42, -3.05 111.2 M8.24 82.68 C6.14 92.98, 2.88 101.98, -0.63 112.44" stroke="#000000" stroke-width="1" fill="none"></path></g></g><g stroke-linecap="round"><g transform="translate(909.5877854636035 1384.6666666666667) rotate(0 -67.88644292345072 -0.7275607578457084)"><path d="M-0.27 -0.33 C-23.17 -0.28, -113.99 0.13, -137.02 0.29 M1.79 -1.55 C-21.24 -1.88, -114.01 -1.71, -137.56 -1.68" stroke="#000000" stroke-width="1" fill="none"></path></g><g transform="translate(909.5877854636035 1384.6666666666667) rotate(0 -67.88644292345072 -0.7275607578457084)"><path d="M-109.93 -10.69 C-118.27 -9.67, -127.08 -6.1, -139.42 -0.41 M-108.74 -11.73 C-115.95 -8.91, -124.89 -7.43, -138.3 -1.29" stroke="#000000" stroke-width="1" fill="none"></path></g><g transform="translate(909.5877854636035 1384.6666666666667) rotate(0 -67.88644292345072 -0.7275607578457084)"><path d="M-109.91 9.83 C-118.25 4.02, -127.06 0.77, -139.42 -0.41 M-108.71 8.79 C-115.87 6.16, -124.82 2.17, -138.3 -1.29" stroke="#000000" stroke-width="1" fill="none"></path></g></g><g transform="translate(824.3016047250203 1340.6666666666667) rotate(0 19 19)"><text x="19.000000000000007" y="27.000000000000014" font-family="Virgil, Segoe UI Emoji" font-size="30.4px" fill="#000000" text-anchor="middle" style="white-space: pre;" direction="ltr">No</text></g><g stroke-linecap="round" transform="translate(497.3016047250203 1317.6666666666667) rotate(0 132 66)"><path d="M189.52 7.37 C204.12 9.61, 217.22 15.12, 227.83 20.75 C238.45 26.38, 247.13 33.92, 253.22 41.16 C259.31 48.4, 263.94 56.43, 264.38 64.2 C264.82 71.98, 261.41 80.11, 255.87 87.82 C250.33 95.54, 241.76 104.41, 231.13 110.5 C220.5 116.6, 206.02 120.91, 192.07 124.39 C178.12 127.87, 163.13 130.42, 147.42 131.39 C131.71 132.36, 113.43 132.08, 97.81 130.2 C82.19 128.32, 66.63 124.86, 53.71 120.11 C40.79 115.37, 28.67 108.67, 20.31 101.72 C11.95 94.77, 6.73 86.23, 3.54 78.43 C0.35 70.63, -1.45 62.59, 1.2 54.9 C3.85 47.21, 11.22 39.01, 19.43 32.29 C27.64 25.57, 38.09 19.66, 50.48 14.6 C62.87 9.54, 78.48 4.21, 93.78 1.91 C109.09 -0.38, 124.69 -0.35, 142.32 0.84 C159.94 2.02, 188.5 6.82, 199.52 9.02 C210.55 11.22, 209.42 13.11, 208.47 14.05 M144.83 -0.66 C160.2 -1.05, 177.77 2.07, 192.09 6 C206.41 9.93, 220.02 17.07, 230.73 22.91 C241.43 28.75, 250.67 33.96, 256.3 41.02 C261.93 48.09, 264.6 57.26, 264.51 65.28 C264.42 73.29, 261.7 81.73, 255.77 89.11 C249.83 96.5, 239.68 103.44, 228.9 109.59 C218.12 115.73, 205.08 122.44, 191.1 125.99 C177.11 129.54, 161 130.29, 145.01 130.87 C129.02 131.46, 110.56 131.54, 95.15 129.51 C79.75 127.47, 65.08 123.63, 52.58 118.67 C40.07 113.71, 28.35 106.49, 20.12 99.77 C11.88 93.04, 6.32 86.15, 3.15 78.32 C-0.02 70.5, -1.49 60.55, 1.09 52.83 C3.67 45.1, 10.18 38.38, 18.64 31.98 C27.1 25.57, 38.79 19.25, 51.86 14.42 C64.93 9.59, 81.8 5.47, 97.08 3.01 C112.36 0.55, 135.57 -0.26, 143.55 -0.34 C151.52 -0.42, 145.15 1.31, 144.91 2.52" stroke="#000000" stroke-width="1" fill="none"></path></g><g transform="translate(505.3016047250203 1356.6666666666667) rotate(0 129.5 25)"><text x="129.5" y="18" font-family="Virgil, Segoe UI Emoji" font-size="20px" fill="#000000" text-anchor="middle" style="white-space: pre;" direction="ltr">Error: "PlasmaDB did not </text><text x="129.5" y="43" font-family="Virgil, Segoe UI Emoji" font-size="20px" fill="#000000" text-anchor="middle" style="white-space: pre;" direction="ltr">respond before timeout"</text></g><g stroke-linecap="round" transform="translate(186.8016047250203 1283.6666666666667) rotate(0 116.50000000000001 91)"><path d="M118.46 -1.37 C147.39 26.86, 179.26 51.44, 233.17 90.84 M117.51 -0.16 C160.97 33.48, 205.94 67.62, 232.04 91.46 M231.49 93.04 C205.65 111.89, 177.14 132.93, 117.15 180.96 M233.65 92.77 C197.87 118.89, 164.84 145.39, 116.27 181.94 M116.94 183.61 C81.56 156.95, 48.14 130.31, -1.02 92.4 M117.31 182.07 C81.16 155.72, 48.23 128.57, 0.63 92.61 M-0.52 91.57 C29.88 68.35, 64.03 43.36, 117.09 -1.07 M0.1 91.23 C35.79 64.36, 72.44 36.22, 116.66 0.67" stroke="#000000" stroke-width="1" fill="none"></path></g><g transform="translate(212.8016047250203 1361.6666666666667) rotate(0 89 12.5)"><text x="89" y="18" font-family="Virgil, Segoe UI Emoji" font-size="20px" fill="#000000" text-anchor="middle" style="white-space: pre;" direction="ltr">Try to reconnect?</text></g><g stroke-linecap="round" transform="translate(30.690493613909098 1362.6666666666667) rotate(0 20 19)"><path d="M11.65 2.47 C15.05 0.27, 19.34 -1.29, 23.49 -0.48 C27.63 0.33, 33.62 4.01, 36.54 7.32 C39.45 10.63, 41.3 15.14, 40.97 19.39 C40.64 23.64, 37.51 29.58, 34.57 32.82 C31.63 36.06, 27.59 38.61, 23.34 38.83 C19.09 39.05, 12.9 36.61, 9.08 34.16 C5.27 31.71, 1.84 28.02, 0.44 24.14 C-0.96 20.25, -1.35 14.51, 0.7 10.86 C2.75 7.2, 10.62 3.81, 12.72 2.22 C14.83 0.63, 13.31 1.07, 13.33 1.34 M12.32 1.07 C15.68 -0.71, 20.69 -0.75, 24.7 0.42 C28.7 1.6, 33.62 4.77, 36.36 8.13 C39.09 11.49, 41.3 16.36, 41.11 20.58 C40.93 24.8, 38.35 30.55, 35.24 33.48 C32.14 36.41, 26.77 38.02, 22.49 38.16 C18.21 38.3, 13.05 36.54, 9.56 34.29 C6.08 32.05, 2.86 28.28, 1.58 24.69 C0.3 21.1, 0.25 16.41, 1.88 12.76 C3.52 9.1, 9.69 4.4, 11.39 2.74 C13.08 1.08, 11.77 2.67, 12.06 2.79" stroke="none" stroke-width="0" fill="#000"></path><path d="M27.9 1.19 C31.71 2.41, 36.33 6.15, 38.23 9.87 C40.13 13.59, 40.36 19.43, 39.29 23.53 C38.23 27.62, 35.23 32.02, 31.82 34.42 C28.42 36.82, 23.18 38.2, 18.85 37.92 C14.51 37.64, 8.87 35.31, 5.8 32.75 C2.73 30.19, 0.78 26.56, 0.43 22.56 C0.08 18.56, 1.58 12.4, 3.7 8.74 C5.81 5.08, 9 1.9, 13.11 0.61 C17.22 -0.69, 25.53 0.53, 28.37 0.98 C31.21 1.42, 30.35 2.85, 30.16 3.28 M22.55 -0.38 C26.31 -0.1, 29.58 3.97, 32.56 6.65 C35.54 9.32, 39.98 11.71, 40.41 15.68 C40.84 19.66, 37.84 26.76, 35.15 30.48 C32.47 34.19, 27.95 36.78, 24.31 37.96 C20.67 39.14, 16.9 39.57, 13.31 37.59 C9.71 35.6, 4.7 29.87, 2.74 26.07 C0.78 22.27, 0.42 18.33, 1.55 14.78 C2.68 11.24, 6.25 7.48, 9.53 4.8 C12.8 2.12, 19.34 -0.56, 21.21 -1.31 C23.07 -2.06, 20.79 -0.28, 20.7 0.29" stroke="#000000" stroke-width="1" fill="none"></path></g><g stroke-linecap="round" transform="translate(10.690493613909098 1346.6666666666667) rotate(0 37 35)"><path d="M52.54 3.89 C58.97 6.12, 65.56 12.02, 69.19 17.86 C72.81 23.7, 75.06 32.12, 74.27 38.9 C73.47 45.67, 69.48 53.56, 64.42 58.51 C59.35 63.46, 51.14 67.18, 43.89 68.58 C36.63 69.98, 27.3 69.59, 20.9 66.92 C14.51 64.24, 8.99 58.69, 5.53 52.52 C2.06 46.35, -0.58 36.89, 0.12 29.9 C0.81 22.92, 4.87 15.45, 9.7 10.62 C14.53 5.79, 21.11 1.87, 29.09 0.93 C37.07 0, 52.32 3.6, 57.59 5 C62.87 6.39, 61.07 8.7, 60.73 9.28 M51.49 2.82 C57.94 4.71, 62.74 9.04, 66.62 14.51 C70.5 19.98, 74.78 28.31, 74.76 35.64 C74.73 42.97, 70.94 52.84, 66.46 58.49 C61.98 64.14, 55.19 67.85, 47.87 69.54 C40.56 71.23, 29.49 71, 22.58 68.63 C15.67 66.26, 9.98 61.28, 6.43 55.33 C2.88 49.39, 1.18 40.14, 1.25 32.96 C1.33 25.79, 2.53 17.68, 6.86 12.29 C11.19 6.89, 19.99 2.4, 27.24 0.62 C34.48 -1.17, 46.73 1.41, 50.33 1.57 C53.94 1.72, 49.18 0.79, 48.86 1.53" stroke="#000000" stroke-width="1" fill="none"></path></g><g transform="translate(1067.3016047250203 1529.6666666666667) rotate(0 23.100000000000023 17.5)"><text x="23.1" y="25.000000000000007" font-family="Virgil, Segoe UI Emoji" font-size="28.000000000000004px" fill="#000000" text-anchor="middle" style="white-space: pre;" direction="ltr">Yes</text></g><g stroke-linecap="round" transform="translate(896.8016047250203 1614.6666666666667) rotate(0 164.5 95)"><path d="M240.55 9.6 C256.89 12.92, 271.09 22.77, 283.16 30.21 C295.23 37.65, 305.44 45.11, 312.98 54.26 C320.51 63.4, 326.42 74.64, 328.37 85.08 C330.32 95.52, 328.88 106.93, 324.65 116.87 C320.42 126.82, 312.4 136.26, 302.98 144.76 C293.56 153.26, 281.8 161.43, 268.14 167.87 C254.48 174.31, 237.72 179.77, 221.05 183.4 C204.38 187.02, 186.04 189.22, 168.12 189.61 C150.2 190.01, 130.49 188.89, 113.52 185.75 C96.55 182.61, 80.45 176.88, 66.28 170.77 C52.11 164.66, 38.46 157.37, 28.49 149.08 C18.52 140.78, 11.03 131.14, 6.48 121.02 C1.93 110.9, 0.33 98.76, 1.19 88.38 C2.06 77.99, 4.91 67.99, 11.67 58.72 C18.44 49.46, 29.71 40.44, 41.8 32.79 C53.88 25.15, 68.93 17.96, 84.19 12.84 C99.46 7.71, 116.07 4.01, 133.37 2.03 C150.67 0.06, 169.13 -0.89, 187.98 0.97 C206.83 2.84, 235.89 10.52, 246.47 13.22 C257.04 15.91, 252.9 15.97, 251.41 17.14 M211.97 5.03 C228.94 6.41, 247.65 11.01, 262.39 17.15 C277.14 23.29, 290.41 33.13, 300.44 41.87 C310.46 50.62, 317.7 60.1, 322.55 69.64 C327.41 79.17, 330.65 89.09, 329.55 99.09 C328.46 109.09, 322.94 119.74, 315.96 129.62 C308.98 139.5, 299.01 150.67, 287.66 158.37 C276.31 166.07, 263.08 171.09, 247.85 175.81 C232.62 180.53, 213.95 184.24, 196.28 186.67 C178.61 189.11, 159.62 191.36, 141.83 190.4 C124.04 189.44, 105.34 185.51, 89.52 180.91 C73.71 176.31, 59 170.3, 46.95 162.81 C34.9 155.32, 25.13 145.53, 17.24 135.96 C9.35 126.39, 1.89 115.6, -0.38 105.4 C-2.65 95.2, -0.27 84.48, 3.63 74.74 C7.54 65.01, 13.75 55.98, 23.06 47 C32.36 38.02, 45.72 27.61, 59.48 20.87 C73.25 14.13, 88.82 9.84, 105.65 6.57 C122.47 3.3, 142.63 1.51, 160.44 1.24 C178.24 0.97, 203.89 4.3, 212.49 4.93 C221.08 5.57, 212.88 3.5, 212.01 5.02" stroke="#000000" stroke-width="1" fill="none"></path></g><g transform="translate(911.7866047250202 1676.6666666666667) rotate(0 145.5 32)"><text x="145.5" y="23" font-family="Virgil, Segoe UI Emoji" font-size="25.39999999999998px" fill="#000000" text-anchor="middle" style="white-space: pre;" direction="ltr">Send server information</text><text x="145.5" y="55" font-family="Virgil, Segoe UI Emoji" font-size="25.39999999999998px" fill="#000000" text-anchor="middle" style="white-space: pre;" direction="ltr"> and UUID to client</text></g><g stroke-linecap="round"><g transform="translate(1055.8016047250203 1496.6666666666667) rotate(0 -0.9080491287519976 57.00287983669898)"><path d="M-0.11 -0.81 C-0.17 18.02, -0.24 94.39, -0.22 113.19 M-1.63 1.37 C-1.87 20.4, -1.43 96.26, -1.28 114.82" stroke="#000000" stroke-width="1" fill="none"></path></g><g transform="translate(1055.8016047250203 1496.6666666666667) rotate(0 -0.9080491287519976 57.00287983669898)"><path d="M-13.08 86.33 C-8.14 95.45, -6.97 103.07, -1.43 114.23 M-10.98 87.3 C-9.26 95.97, -4.66 105.35, -0.78 113.91" stroke="#000000" stroke-width="1" fill="none"></path></g><g transform="translate(1055.8016047250203 1496.6666666666667) rotate(0 -0.9080491287519976 57.00287983669898)"><path d="M7.44 86.2 C6.04 95.34, 0.88 103, -1.43 114.23 M9.55 87.17 C4.74 95.71, 2.82 105.14, -0.78 113.91" stroke="#000000" stroke-width="1" fill="none"></path></g></g><g stroke-linecap="round"><g transform="translate(1055.2236652236631 1808.414914297541) rotate(0 -0.03718296437529034 63.05461394162967)"><path d="M0.66 0.24 C0.63 21.12, -1.16 104.87, -1.1 125.85 M-0.46 -0.68 C-0.04 20.26, 0.83 105.52, 1.03 126.79" stroke="#000000" stroke-width="1" fill="none"></path></g><g transform="translate(1055.2236652236631 1808.414914297541) rotate(0 -0.03718296437529034 63.05461394162967)"><path d="M-9.12 96.87 C-8.94 106.46, -6.18 112.65, -0.96 128.79 M-9.92 98.39 C-6.98 103.9, -5.28 110.66, 1.17 127.36" stroke="#000000" stroke-width="1" fill="none"></path></g><g transform="translate(1055.2236652236631 1808.414914297541) rotate(0 -0.03718296437529034 63.05461394162967)"><path d="M11.4 96.66 C7.06 106.41, 5.29 112.65, -0.96 128.79 M10.6 98.18 C9.37 103.84, 6.89 110.65, 1.17 127.36" stroke="#000000" stroke-width="1" fill="none"></path></g></g><g stroke-linecap="round" transform="translate(1036.3387445887427 1956.0657079483353) rotate(0 20 19)"><path d="M21.67 0.18 C25.58 0.41, 30.73 3.43, 33.83 6.13 C36.92 8.82, 39.86 12.41, 40.23 16.35 C40.59 20.29, 38.39 26.14, 36.03 29.75 C33.66 33.36, 30.25 36.95, 26.03 38.03 C21.8 39.1, 14.78 38.04, 10.69 36.19 C6.59 34.33, 3.15 30.61, 1.47 26.9 C-0.21 23.18, -0.61 17.92, 0.62 13.92 C1.85 9.92, 4.66 5.07, 8.85 2.89 C13.03 0.72, 22.44 0.98, 25.74 0.85 C29.04 0.73, 28.66 1.84, 28.64 2.15 M30.11 0.78 C33.67 2.17, 36.59 7.37, 38.05 11.43 C39.51 15.48, 39.85 21.3, 38.87 25.11 C37.89 28.91, 35.65 32.21, 32.19 34.24 C28.74 36.27, 22.56 37.46, 18.13 37.27 C13.7 37.09, 8.63 35.75, 5.62 33.12 C2.61 30.49, 0.22 25.54, 0.07 21.51 C-0.07 17.47, 2.08 12.55, 4.78 8.89 C7.48 5.22, 12.19 0.52, 16.27 -0.49 C20.35 -1.5, 27.12 2.49, 29.27 2.84 C31.41 3.2, 29.53 1.27, 29.11 1.63" stroke="none" stroke-width="0" fill="#000"></path><path d="M15.45 -0.31 C19.32 -1.34, 25.74 0.05, 29.43 2.08 C33.13 4.11, 36.08 8, 37.62 11.86 C39.16 15.73, 39.83 21.25, 38.68 25.27 C37.53 29.3, 34.13 33.92, 30.73 36.01 C27.33 38.11, 22.37 38.59, 18.27 37.83 C14.17 37.08, 9.29 34.61, 6.12 31.49 C2.96 28.37, -0.36 23.09, -0.7 19.1 C-1.03 15.1, 1.08 10.84, 4.13 7.52 C7.18 4.21, 15.06 0.49, 17.59 -0.79 C20.13 -2.07, 19.3 -0.75, 19.34 -0.16 M17.98 0.21 C22.08 0.04, 27.42 2.58, 31.03 4.91 C34.64 7.25, 38.41 10.24, 39.65 14.22 C40.89 18.2, 40.33 25.26, 38.48 28.79 C36.63 32.33, 32.47 33.89, 28.55 35.44 C24.64 36.99, 19.03 39.09, 15 38.09 C10.96 37.09, 6.9 33.1, 4.35 29.44 C1.8 25.78, -0.72 20.24, -0.31 16.13 C0.1 12.02, 3.47 7.41, 6.8 4.77 C10.13 2.13, 17.4 1.17, 19.66 0.28 C21.92 -0.61, 20.5 -0.83, 20.37 -0.55" stroke="#000000" stroke-width="1" fill="none"></path></g><g stroke-linecap="round" transform="translate(1016.3387445887427 1940.0657079483353) rotate(0 37 35)"><path d="M46.2 1.5 C53 2.69, 61.29 7.14, 65.94 12.41 C70.59 17.69, 73.71 26.15, 74.11 33.14 C74.52 40.13, 72.26 48.42, 68.39 54.35 C64.51 60.27, 57.78 66.14, 50.89 68.67 C44 71.21, 34.24 71.68, 27.04 69.57 C19.83 67.46, 12.27 61.54, 7.64 56.02 C3.02 50.5, -0.49 43.16, -0.71 36.47 C-0.94 29.77, 2.29 21.53, 6.26 15.85 C10.24 10.18, 15.97 4.66, 23.15 2.42 C30.32 0.17, 44.33 2.12, 49.31 2.37 C54.3 2.61, 53.36 3.39, 53.07 3.87 M22.79 3.16 C28.71 0.41, 36.74 -0.02, 43.83 1.54 C50.93 3.1, 60.56 7.38, 65.36 12.52 C70.16 17.66, 71.84 25.51, 72.63 32.37 C73.42 39.24, 73.46 48.03, 70.09 53.71 C66.73 59.39, 59.28 63.81, 52.45 66.44 C45.62 69.07, 36.28 70.74, 29.11 69.48 C21.94 68.23, 14.19 63.84, 9.42 58.9 C4.64 53.96, 1.39 46.82, 0.48 39.86 C-0.43 32.89, 0.4 23.14, 3.97 17.11 C7.54 11.09, 18.8 5.91, 21.91 3.72 C25.02 1.52, 22.19 3.61, 22.62 3.95" stroke="#000000" stroke-width="1" fill="none"></path></g><g transform="translate(939.5476364710526 423.8968253968254) rotate(0 126.80000000000001 28.55855855855856)"><text x="126.80000000000001" y="19.55855855855856" font-family="Virgil, Segoe UI Emoji" font-size="22.846846846846848px" fill="#000000" text-anchor="middle" style="white-space: pre;" direction="ltr">Generate UUID using </text><text x="126.80000000000001" y="48.11711711711712" font-family="Virgil, Segoe UI Emoji" font-size="22.846846846846848px" fill="#000000" text-anchor="middle" style="white-space: pre;" direction="ltr">Java library</text></g><g stroke-linecap="round" transform="translate(906.5 353.9217685543971) rotate(0 160.5 95.5)"><path d="M121.44 2.2 C136.87 -1.43, 157.05 0.34, 174.14 1.32 C191.23 2.3, 208.19 4.21, 223.97 8.09 C239.74 11.97, 255.85 17.73, 268.78 24.61 C281.71 31.48, 293.09 40.09, 301.56 49.35 C310.04 58.61, 316.77 70, 319.64 80.17 C322.51 90.33, 321.71 100.08, 318.79 110.35 C315.88 120.62, 310.3 132.66, 302.16 141.77 C294.02 150.87, 282.98 158.21, 269.97 165 C256.95 171.78, 240.18 178.22, 224.05 182.49 C207.92 186.75, 190.31 189.57, 173.18 190.59 C156.05 191.61, 138.06 191.27, 121.28 188.6 C104.5 185.92, 87.16 180.31, 72.52 174.54 C57.88 168.78, 44.18 162.15, 33.44 154.03 C22.69 145.9, 13.6 135.42, 8.07 125.79 C2.53 116.17, 0.09 106.4, 0.23 96.29 C0.37 86.18, 3.47 74.92, 8.93 65.11 C14.4 55.3, 22.34 45.71, 33 37.43 C43.66 29.14, 55.88 21.48, 72.88 15.4 C89.88 9.32, 122.51 3.27, 134.98 0.96 C147.45 -1.35, 147.22 -0.21, 147.7 1.52 M195.18 1.67 C211.95 2.53, 230.97 8.44, 246.13 14.28 C261.29 20.12, 275.33 28.91, 286.15 36.72 C296.97 44.53, 305.14 51.69, 311.07 61.13 C317.01 70.56, 321.59 82.81, 321.77 93.32 C321.94 103.84, 317.69 114.15, 312.12 124.24 C306.54 134.32, 298.6 145.44, 288.31 153.82 C278.03 162.2, 264.76 169.13, 250.43 174.52 C236.09 179.91, 218.91 183.36, 202.3 186.15 C185.69 188.95, 167.77 191.82, 150.77 191.27 C133.76 190.72, 116.25 186.99, 100.28 182.87 C84.3 178.74, 67.97 173.35, 54.93 166.51 C41.9 159.67, 30.83 150.85, 22.07 141.84 C13.31 132.82, 5.61 122.38, 2.39 112.42 C-0.83 102.47, 0.21 92.06, 2.76 82.1 C5.3 72.13, 10.05 61.99, 17.64 52.65 C25.23 43.3, 35.63 33.46, 48.28 26.04 C60.93 18.63, 77.85 12.66, 93.55 8.17 C109.25 3.68, 125.5 -0.03, 142.49 -0.9 C159.49 -1.77, 186.66 1.93, 195.51 2.96 C204.36 3.98, 195.96 4.04, 195.58 5.26" stroke="#000000" stroke-width="1" fill="none"></path></g><g stroke-linecap="round"><g transform="translate(1065 200.42176855439715) rotate(0 -0.2831902583688475 74.06403514135636)"><path d="M-0.78 -0.49 C-0.94 24.34, -0.48 124.83, -0.41 149.92 M1.01 -1.8 C0.61 22.6, -1.19 123.07, -1.58 148.04" stroke="#000000" stroke-width="1" fill="none"></path></g><g transform="translate(1065 200.42176855439715) rotate(0 -0.2831902583688475 74.06403514135636)"><path d="M-12.18 119 C-6.99 129, -3.32 137.85, -1.04 150.04 M-11.93 119.14 C-7.27 129.05, -4.61 140.46, -1.48 147.47" stroke="#000000" stroke-width="1" fill="none"></path></g><g transform="translate(1065 200.42176855439715) rotate(0 -0.2831902583688475 74.06403514135636)"><path d="M8.34 119.34 C6.41 129.09, 2.97 137.82, -1.04 150.04 M8.59 119.48 C5.96 129.23, 1.33 140.51, -1.48 147.47" stroke="#000000" stroke-width="1" fill="none"></path></g></g><g stroke-linecap="round"><g transform="translate(1065 543.4217685543972) rotate(0 0.17131077244880544 52.412296874970195)"><path d="M0.44 0.95 C0.5 18.48, 1.14 87.27, 1.13 104.42 M-0.79 0.41 C-0.86 17.63, 0.68 85.07, 0.78 102.51" stroke="#000000" stroke-width="1" fill="none"></path></g><g transform="translate(1065 543.4217685543972) rotate(0 0.17131077244880544 52.412296874970195)"><path d="M-8.31 76.37 C-5.49 85.3, -2.59 95.38, 1.87 102.59 M-10.53 74.86 C-5.24 86.1, -1.91 95.73, 1.37 103.18" stroke="#000000" stroke-width="1" fill="none"></path></g><g transform="translate(1065 543.4217685543972) rotate(0 0.17131077244880544 52.412296874970195)"><path d="M12.21 76.06 C7.55 85.18, 2.97 95.38, 1.87 102.59 M9.99 74.55 C7.24 85.8, 2.54 95.55, 1.37 103.18" stroke="#000000" stroke-width="1" fill="none"></path></g></g><g transform="translate(1075 570.4217685543972) rotate(0 249 12.5)"><text x="249" y="18" font-family="Virgil, Segoe UI Emoji" font-size="20px" fill="#000000" text-anchor="middle" style="white-space: pre;" direction="ltr">Check if this server is responsible for that object</text></g><g stroke-linecap="round"><g transform="translate(496 1379.4217685543972) rotate(0 -39.75177063532173 -0.46158398487921204)"><path d="M0.22 0.25 C-12.92 0.5, -66.34 0.51, -79.73 0.51 M-1.12 -0.66 C-13.79 -0.69, -64.62 -1.75, -77.4 -1.35" stroke="#000000" stroke-width="1" fill="none"></path></g><g transform="translate(496 1379.4217685543972) rotate(0 -39.75177063532173 -0.46158398487921204)"><path d="M-48.81 -12.87 C-54.84 -11.11, -61.63 -8.8, -76.14 -0.26 M-48.49 -12.03 C-54.96 -8.76, -60.41 -7.01, -76.7 -1.66" stroke="#000000" stroke-width="1" fill="none"></path></g><g transform="translate(496 1379.4217685543972) rotate(0 -39.75177063532173 -0.46158398487921204)"><path d="M-48.77 7.65 C-54.65 4.76, -61.44 2.43, -76.14 -0.26 M-48.45 8.49 C-55.09 7.49, -60.55 4.97, -76.7 -1.66" stroke="#000000" stroke-width="1" fill="none"></path></g></g><g stroke-linecap="round"><g transform="translate(185 1375.4217685543972) rotate(0 -46.56363055318593 0.18644402213396916)"><path d="M-0.78 0.86 C-16.35 0.63, -78.9 -0.2, -94.14 -0.49 M1.01 0.27 C-14.15 0.12, -76.44 0.84, -92.02 0.79" stroke="#000000" stroke-width="1" fill="none"></path></g><g transform="translate(185 1375.4217685543972) rotate(0 -46.56363055318593 0.18644402213396916)"><path d="M-62.45 -11.5 C-71.4 -5.92, -78.85 -3.13, -92.09 -0.81 M-63.4 -10.08 C-68.78 -6.88, -76.39 -4.05, -91.46 0.03" stroke="#000000" stroke-width="1" fill="none"></path></g><g transform="translate(185 1375.4217685543972) rotate(0 -46.56363055318593 0.18644402213396916)"><path d="M-62.35 9.02 C-71.48 9.66, -78.95 7.5, -92.09 -0.81 M-63.3 10.44 C-68.78 9.33, -76.4 7.85, -91.46 0.03" stroke="#000000" stroke-width="1" fill="none"></path></g></g><g transform="translate(133.5 1340.4217685543972) rotate(0 16 16)"><text x="16.000000000000004" y="22.000000000000007" font-family="Virgil, Segoe UI Emoji" font-size="25.599999999999998px" fill="#000000" text-anchor="middle" style="white-space: pre;" direction="ltr">No</text></g><g stroke-linecap="round"><g transform="translate(305.32371115333893 1280.444125738225) rotate(0 -0.07602017610333789 -46.714433910537764)"><path d="M0.76 0.62 C0.67 -14.97, -1.17 -78.52, -1.13 -94.05 M-0.3 -0.1 C0.01 -15.48, 0.82 -77.03, 0.98 -92.75" stroke="#000000" stroke-width="1" fill="none"></path></g><g transform="translate(305.32371115333893 1280.444125738225) rotate(0 -0.07602017610333789 -46.714433910537764)"><path d="M11.94 -66.32 C7.78 -69.91, 7.71 -77.5, 1.75 -93.59 M10.94 -64.97 C8.68 -71.04, 5.83 -79.22, 1.06 -92.91" stroke="#000000" stroke-width="1" fill="none"></path></g><g transform="translate(305.32371115333893 1280.444125738225) rotate(0 -0.07602017610333789 -46.714433910537764)"><path d="M-8.58 -66.57 C-7.57 -70.23, -2.46 -77.75, 1.75 -93.59 M-9.58 -65.22 C-6.8 -71.23, -4.61 -79.35, 1.06 -92.91" stroke="#000000" stroke-width="1" fill="none"></path></g></g><g transform="translate(317.5 1249.4217685543972) rotate(0 16.5 12.5)"><text x="16.5" y="18" font-family="Virgil, Segoe UI Emoji" font-size="20px" fill="#000000" text-anchor="middle" style="white-space: pre;" direction="ltr">Yes</text></g><g stroke-linecap="round" transform="translate(190 1003.4217685543972) rotate(0 114 91.5)"><path d="M113.34 -0.1 C153.46 31.48, 196.28 63.2, 227.08 93.81 M115.07 0.55 C151.15 29.03, 186.29 57.82, 228.28 91.56 M228.85 91.06 C207.6 108.81, 181.91 126.86, 114.91 181.55 M227.14 91.74 C193.71 120.14, 162.1 146.86, 114.09 183.22 M113.08 181.9 C85.43 156.69, 55.5 133.01, 1.48 90.25 M114.23 183.47 C80.26 155.25, 47.57 127.95, -0.96 92.9 M-0.67 90.23 C23.7 73.09, 48.09 52.03, 115.69 0.37 M0.18 91.91 C41.31 57.67, 81.89 25.67, 114.93 -0.59" stroke="#000000" stroke-width="1" fill="none"></path></g><g transform="translate(244.409090909091 1072.4217685543972) rotate(0 60.5 25)"><text x="60.5" y="18" font-family="Virgil, Segoe UI Emoji" font-size="20px" fill="#000000" text-anchor="middle" style="white-space: pre;" direction="ltr">Reconnection</text><text x="60.5" y="43" font-family="Virgil, Segoe UI Emoji" font-size="20px" fill="#000000" text-anchor="middle" style="white-space: pre;" direction="ltr">worked?</text></g><g stroke-linecap="round"><g transform="translate(184 1095.4217685543972) rotate(0 -46.81878505706787 0.1700893264263641)"><path d="M0.81 -0.62 C-14.9 -0.58, -77.89 0.39, -94.02 0.52 M-0.22 1.66 C-16.02 1.32, -78.89 -1.31, -94.45 -1.32" stroke="#000000" stroke-width="1" fill="none"></path></g><g transform="translate(184 1095.4217685543972) rotate(0 -46.81878505706787 0.1700893264263641)"><path d="M-67.06 -9.26 C-74.16 -9.24, -83.75 -6.28, -92.94 -2.38 M-65.3 -11.1 C-74.05 -7.88, -83.55 -5.31, -93.61 -1.11" stroke="#000000" stroke-width="1" fill="none"></path></g><g transform="translate(184 1095.4217685543972) rotate(0 -46.81878505706787 0.1700893264263641)"><path d="M-67.55 11.25 C-74.54 4.75, -83.98 1.19, -92.94 -2.38 M-65.79 9.42 C-74.4 6.18, -83.75 2.29, -93.61 -1.11" stroke="#000000" stroke-width="1" fill="none"></path></g></g><g transform="translate(129.5 1062.4217685543972) rotate(0 16.5 16.5)"><text x="16.500000000000007" y="23.000000000000014" font-family="Virgil, Segoe UI Emoji" font-size="26.400000000000006px" fill="#000000" text-anchor="middle" style="white-space: pre;" direction="ltr">No</text></g><g stroke-linecap="round" transform="translate(30 1071.4217685543974) rotate(0 20 19)"><path d="M27.32 0.71 C31.04 1.99, 34.94 6.45, 36.86 9.86 C38.77 13.28, 39.27 17.28, 38.8 21.22 C38.34 25.16, 37.13 30.81, 34.04 33.5 C30.95 36.19, 24.73 37.16, 20.26 37.36 C15.79 37.55, 10.66 37, 7.22 34.65 C3.79 32.31, 0.33 27.56, -0.34 23.27 C-1.01 18.99, 1.06 12.72, 3.2 8.95 C5.35 5.17, 7.75 1.61, 12.52 0.63 C17.3 -0.35, 28.1 1.8, 31.85 3.07 C35.6 4.35, 35.3 8.07, 34.99 8.27 M26.94 2.27 C30.68 3.4, 34.38 6.99, 36.59 10.41 C38.8 13.82, 41.07 18.9, 40.2 22.78 C39.32 26.66, 34.86 31.23, 31.33 33.69 C27.81 36.14, 22.94 37.75, 19.03 37.52 C15.12 37.29, 11.16 34.69, 7.9 32.31 C4.64 29.92, 0.1 26.84, -0.53 23.21 C-1.17 19.59, 1.73 14.1, 4.08 10.56 C6.44 7.01, 9.5 3.45, 13.6 1.94 C17.7 0.43, 26.3 1.4, 28.66 1.49 C31.02 1.59, 28.03 2.1, 27.75 2.5" stroke="none" stroke-width="0" fill="#000"></path><path d="M10.06 2.42 C13.4 0.45, 19.23 -0.77, 23.42 -0.04 C27.61 0.68, 32.36 3.51, 35.2 6.77 C38.04 10.02, 40.65 15.35, 40.47 19.48 C40.29 23.61, 37.11 28.35, 34.1 31.56 C31.08 34.77, 26.45 38.09, 22.39 38.75 C18.33 39.41, 13.35 37.78, 9.73 35.54 C6.11 33.29, 2.17 29.29, 0.66 25.27 C-0.85 21.24, -1.18 15.32, 0.66 11.38 C2.5 7.44, 9.71 3.13, 11.71 1.62 C13.7 0.1, 12.42 1.91, 12.63 2.29 M10.05 0.52 C13.68 -1.19, 21.16 -0.34, 25.63 0.86 C30.1 2.06, 34.45 4.21, 36.88 7.73 C39.3 11.25, 40.52 17.9, 40.19 21.98 C39.86 26.06, 38.14 29.79, 34.9 32.21 C31.66 34.64, 24.93 35.95, 20.74 36.56 C16.54 37.16, 12.82 37.95, 9.72 35.84 C6.63 33.73, 3.3 28.13, 2.17 23.89 C1.04 19.66, 1.58 14.11, 2.95 10.41 C4.32 6.7, 9.17 3.09, 10.39 1.67 C11.62 0.26, 10.05 1.67, 10.32 1.9" stroke="#000000" stroke-width="1" fill="none"></path></g><g stroke-linecap="round" transform="translate(10 1055.4217685543974) rotate(0 37 35)"><path d="M39.93 -0.44 C46.93 -0.42, 55.11 3.29, 60.55 7.9 C65.99 12.51, 70.79 20.64, 72.57 27.23 C74.35 33.82, 73.92 41.26, 71.22 47.43 C68.52 53.59, 62.4 60.44, 56.39 64.21 C50.37 67.98, 42.31 70.55, 35.14 70.06 C27.97 69.57, 19 65.87, 13.36 61.28 C7.71 56.69, 3.13 49.03, 1.26 42.52 C-0.62 36.02, -0.56 28.38, 2.11 22.27 C4.77 16.16, 10.71 9.37, 17.24 5.85 C23.77 2.34, 37.1 2.12, 41.27 1.17 C45.44 0.22, 42.36 -0.19, 42.27 0.15 M20.64 4.28 C26.74 0.89, 35.36 -0.41, 42.71 0.72 C50.06 1.85, 59.63 6.43, 64.75 11.07 C69.87 15.72, 72.81 21.75, 73.43 28.6 C74.06 35.45, 71.61 45.65, 68.51 52.17 C65.41 58.69, 61.1 64.66, 54.82 67.74 C48.55 70.82, 38.34 72.19, 30.87 70.66 C23.41 69.13, 15.12 63.84, 10.02 58.56 C4.92 53.28, 1.3 45.64, 0.27 38.98 C-0.76 32.33, 0.59 24.35, 3.86 18.64 C7.13 12.92, 16.84 6.93, 19.88 4.71 C22.92 2.5, 21.49 5.2, 22.1 5.35" stroke="#000000" stroke-width="1" fill="none"></path></g><g stroke-linecap="round"><g transform="translate(413.88544126339264 1095.2645745669565) rotate(0 261.53826618875837 0.3939481587555065)"><path d="M-0.61 1.04 C86.53 1.35, 436.46 1.16, 523.69 1.11 M1.26 0.53 C88.26 0.61, 436.45 -0.13, 523.25 -0.43" stroke="#000000" stroke-width="1" fill="none"></path></g><g transform="translate(413.88544126339264 1095.2645745669565) rotate(0 261.53826618875837 0.3939481587555065)"><path d="M496.81 11.5 C507.45 6.29, 517.26 4.31, 523.53 0.47 M495.08 9.94 C505.65 6.98, 514.29 3.27, 524.21 -0.33" stroke="#000000" stroke-width="1" fill="none"></path></g><g transform="translate(413.88544126339264 1095.2645745669565) rotate(0 261.53826618875837 0.3939481587555065)"><path d="M496.75 -9.02 C507.28 -6.62, 517.11 -1, 523.53 0.47 M495.03 -10.58 C505.67 -6.2, 514.33 -2.58, 524.21 -0.33" stroke="#000000" stroke-width="1" fill="none"></path></g></g><g transform="translate(626.5 1046.4217685543972) rotate(0 24.419999999999987 18.5)"><text x="24.419999999999995" y="26.000000000000014" font-family="Virgil, Segoe UI Emoji" font-size="29.599999999999998px" fill="#000000" text-anchor="middle" style="white-space: pre;" direction="ltr">Yes</text></g><g transform="translate(393 713.4217685543972) rotate(0 68 12.5)"><text x="68" y="18" font-family="Virgil, Segoe UI Emoji" font-size="20px" fill="#000000" text-anchor="middle" style="white-space: pre;" direction="ltr">with Infinileap</text></g></svg>